<svg class="root-0-2-78 root-d33-0-2-610 " width="15" height="13" viewBox="0 0 15 13" fill="none" xmlns="http://www.w3.org/2000/svg"><path d="M14.5005 2.0975C13.986 2.32617 13.4318 2.48017 12.8508 2.55017C13.4447 2.19433 13.8985 1.632 14.1143 0.961167C13.559 1.29017 12.9442 1.52933 12.2897 1.65767C11.767 1.09883 11.0192 0.75 10.1943 0.75C8.33932 0.75 6.97665 2.48017 7.39549 4.27683C5.00965 4.15667 2.89215 3.01333 1.47582 1.27617C0.723322 2.5665 1.08615 4.25583 2.36482 5.111C1.89465 5.09583 1.45249 4.96633 1.06515 4.75167C1.03365 6.08167 1.98799 7.3265 3.36932 7.60417C2.96565 7.71383 2.52232 7.7395 2.07199 7.65317C2.43715 8.79417 3.49999 9.62367 4.75532 9.647C3.54549 10.5943 2.02532 11.0178 0.500488 10.8382C1.77215 11.6537 3.28065 12.1285 4.90232 12.1285C10.2363 12.1285 13.2487 7.624 13.0667 3.58383C13.629 3.18017 14.1155 2.67383 14.5005 2.0975Z" fill="white"></path></svg>