<svg class="root-0-2-78 root-d34-0-2-611 " width="48" height="48" viewBox="0 0 48 48" fill="none" xmlns="http://www.w3.org/2000/svg"><path d="M40.0575 35.9758L40.0583 35.9737C40.3478 35.2214 40.6856 34.109 40.7771 32.1035C40.8754 29.9841 40.8992 29.3403 40.8992 24.0025C40.8992 18.6537 40.8754 18.0149 40.7771 15.8954C40.6856 13.8897 40.3477 12.7787 40.0588 12.0216L40.0574 12.018C39.6688 11.0221 39.1968 10.3001 38.4438 9.55118C37.6981 8.80254 36.972 8.33077 35.9758 7.94251C35.2204 7.64653 34.1032 7.31339 32.1006 7.218L32.0988 7.21792C29.9798 7.12449 29.3467 7.10075 23.9975 7.10075C18.6533 7.10075 18.0152 7.12449 15.8962 7.21792L15.8944 7.218C13.8916 7.3134 12.7794 7.64662 12.0242 7.94247C11.022 8.33116 10.3013 8.80328 9.55297 9.55044C8.79855 10.2997 8.32579 11.0225 7.94171 12.0202L7.9412 12.0215C7.6527 12.7774 7.3095 13.8885 7.22285 15.8953C7.11955 18.0151 7.10075 18.6556 7.10075 24.0025C7.10075 29.3384 7.11955 29.9839 7.22285 32.1037C7.30948 34.1101 7.65255 35.2225 7.94165 35.9736C8.3254 36.9716 8.79786 37.6986 9.5528 38.4484C10.3013 39.1967 11.0224 39.6681 12.025 40.0529C12.7786 40.3471 13.8905 40.6855 15.8944 40.781L15.8962 40.7811C18.0157 40.8745 18.6541 40.8943 23.9975 40.8943C29.3459 40.8943 29.9794 40.8745 32.0988 40.7811L32.1006 40.781C34.1041 40.6855 35.2208 40.3472 35.9747 40.053C36.9714 39.6686 37.698 39.1976 38.4439 38.4478C39.1974 37.6982 39.6691 36.972 40.0575 35.9758ZM42.4789 11.0792L42.4801 11.0823C42.9562 12.2919 43.2832 13.6926 43.379 15.7771C43.4763 17.8977 43.5 18.5707 43.5 24.0025C43.5 29.4293 43.4763 30.1013 43.379 32.2218C43.2833 34.3021 42.9563 35.7021 42.4798 36.9185L42.4791 36.9202C41.9941 38.1715 41.3497 39.2306 40.2886 40.287L40.2878 40.2878C39.23 41.3456 38.1748 41.9949 36.9192 42.4845C35.7031 42.9564 34.3065 43.2833 32.2219 43.379C30.1013 43.4763 29.4293 43.5 23.9975 43.5C18.5707 43.5 17.8937 43.4763 15.7732 43.379C13.6939 43.2833 12.2979 42.9566 11.0753 42.4843C9.82478 41.9947 8.76971 41.3453 7.7122 40.2878L7.71141 40.287C6.65054 39.2309 6.00582 38.1716 5.51563 36.9195C5.04357 35.7024 4.71672 34.3018 4.61608 32.2218C4.52371 30.1015 4.5 29.4281 4.5 24.0025C4.5 18.5718 4.52371 17.8975 4.61608 15.7771C4.71675 13.6927 5.04374 12.2913 5.51553 11.0808C6.00544 9.82435 6.65004 8.76938 7.7122 7.70723C8.76901 6.65042 9.82384 6.00566 11.0755 5.51468C12.2987 5.04213 13.6944 4.71183 15.7721 4.6211L15.7743 4.621C17.8937 4.51879 18.5696 4.5 23.9975 4.5C29.4303 4.5 30.1013 4.51878 32.2207 4.621L32.223 4.6211C34.3062 4.71186 35.7026 5.04232 36.9194 5.51462C38.176 6.00559 39.2309 6.65029 40.2878 7.70723C41.35 8.7694 41.9942 9.82399 42.4789 11.0792ZM34.6753 11.4219C35.724 11.4219 36.5771 12.2718 36.5771 13.3247C36.5771 14.372 35.7247 15.2226 34.6753 15.2226C33.6256 15.2226 32.7724 14.3717 32.7724 13.3247C32.7724 12.2721 33.6263 11.4219 34.6753 11.4219ZM16.8317 24.0024C16.8317 27.9589 20.042 31.1634 23.9975 31.1634C27.9536 31.1634 31.1683 27.9593 31.1683 24.0024C31.1683 20.0403 27.9543 16.8317 23.9975 16.8317C20.0413 16.8317 16.8317 20.0407 16.8317 24.0024ZM14.2309 24.0024C14.2309 18.6055 18.6018 14.226 23.9975 14.226C29.3935 14.226 33.7691 18.6058 33.7691 24.0024C33.7691 29.3937 29.394 33.7691 23.9975 33.7691C18.6013 33.7691 14.2309 29.394 14.2309 24.0024Z" fill="white" stroke="white"></path></svg>