<svg xmlns="http://www.w3.org/2000/svg" xmlns:xlink="http://www.w3.org/1999/xlink" x="0px" y="0px" viewBox="0 0 100 100" style="enable-background:new 0 0 100 100;" xml:space="preserve"><style type="text/css">	.supprt_icon_2{fill:none;stroke:currentcolor;stroke-width:4;stroke-linecap:round;stroke-linejoin:round;stroke-miterlimit:10;}</style><g><line class="supprt_icon_2" x1="84.1" y1="59.6" x2="84.1" y2="72.9"></line><path class="supprt_icon_2" d="M9.4,72.9V27.1c0-4.6,3.8-8.4,8.4-8.4h29"></path></g><g><path class="supprt_icon_2" d="M52.7,57.4L62.8,53c3.2,1.4,6.8,2.2,10.6,2.2c13,0,23.6-9.5,23.6-21.3c0-11.8-10.6-21.3-23.6-21.3c-13,0-23.6,9.5-23.6,21.3c0,4.5,1.6,8.7,4.2,12.2"></path></g><g><g><g><g><path class="supprt_icon_2" d="M21,45.2c4-0.2,13.7-2.5,15.8-5.4"></path><path class="supprt_icon_2" d="M42.9,40.9c-0.3-0.9-0.7-2-1.3-3.1c-1-1.9-2.6-3.9-5-5.2c-3.1-1.6-6.7-1.7-9.9-0.3c-2,0.9-4.4,2.4-6,5.1c-0.6,1-1.1,2.2-1.5,3.6c-0.3,1.3,0.1,2.7,1.1,3.5c1,0.8,1.2,1.5,1.3,2.4l0,0l0,0c1,5.3,4.8,11.2,9.4,11.2c4.6,0,8.4-5.7,9.4-11c0.1-0.3,0.1-0.7,0.3-1c0.2-0.6,0.5-1.1,1.3-1.9c0.1-0.1,0.2-0.2,0.2-0.3C43,43.1,43.2,42,42.9,40.9z"></path><path class="supprt_icon_2" d="M46.5,72.5l-0.4-2.9c-0.3-1.9-1.6-3.6-3.5-4.3l-5.3-1.9l-8.4,9.1"></path><path class="supprt_icon_2" d="M16,72.5l0.4-2.9c0.3-1.9,1.6-3.6,3.5-4.3l5.3-1.9l3.7,2.9"></path></g></g></g></g><path class="supprt_icon_2" d="M82.1,88.3H11.3c-4.8,0-8.7-3.9-8.7-8.7l0,0h88.2l0,0C90.9,84.4,86.9,88.3,82.1,88.3z"></path><line class="supprt_icon_2" x1="60.3" y1="25.5" x2="85.9" y2="25.5"></line><line class="supprt_icon_2" x1="60.3" y1="34.4" x2="85.9" y2="34.4"></line><line class="supprt_icon_2" x1="60.3" y1="43.3" x2="85.9" y2="43.3"></line></svg>