<svg xmlns="http://www.w3.org/2000/svg" xmlns:xlink="http://www.w3.org/1999/xlink" x="0px" y="0px" viewBox="0 0 100 100" style="enable-background:new 0 0 100 100;" xml:space="preserve"><g>	<path d="M93.3,23.8c0,1.1,0,2.3,0,3.4c-0.5,1.9-1.5,3.4-3,4.7c-11.8,7.9-23.7,15.8-35.5,23.7c-3.2,1.9-6.3,1.9-9.5,0  C33.4,47.6,21.6,39.7,9.7,31.8c-1.5-1.2-2.6-2.8-3-4.7c0-1.1,0-2.3,0-3.4c1-3.4,3.2-5.4,6.6-6.2c24.5-0.1,49-0.1,73.5,0  C90.2,18.3,92.4,20.4,93.3,23.8z"></path>	<path d="M6.7,35.6c12.3,8.1,24.5,16.3,36.7,24.5c4.4,2.4,8.8,2.4,13.2,0c12.2-8.2,24.5-16.3,36.7-24.5  c0,13.5,0,27.1,0,40.6c-1,3.4-3.2,5.4-6.6,6.2c-24.5,0.1-49,0.1-73.5,0c-3.4-0.8-5.6-2.8-6.6-6.2C6.7,62.7,6.7,49.2,6.7,35.6z"></path></g></svg>