<svg xmlns="http://www.w3.org/2000/svg" xmlns:xlink="http://www.w3.org/1999/xlink" x="0px" y="0px" viewBox="0 0 100 100" style="enable-background:new 0 0 100 100;" xml:space="preserve"><style type="text/css">	.supprt_icon_1{fill:none;stroke:currentcolor;stroke-width:4;stroke-linecap:round;stroke-linejoin:round;stroke-miterlimit:10;}</style><g><path class="supprt_icon_1" d="M50.6,20.1h-34C9.4,20.1,3.6,25.9,3.6,33v32.3c0,4.2,2,8,5.1,10.3l0.1,20.2l22.5-17.6h29.5c3.9,0,7.5-1.8,9.8-4.5"></path><g><path class="supprt_icon_1" d="M51.2,63.3c2.8,1.3,8.1,2.9,16.8,2.9h19.7c2.8,0,5.1-2.3,5.1-5.1l0,0c0-2.8-2.3-5.1-5.1-5.1h1.1c2.8,0,5.1-2.2,5.2-4.9c0.1-2.9-2.2-5.2-5.1-5.2h2.7c2.8,0,5.1-2.3,5.1-5.1v0c0-2.8-2.3-5.1-5.1-5.1h1.4c2.8,0,5.1-2.3,5.1-5.1v0c0-2.8-2.3-5.1-5.1-5.1H73.7c2.1-6,3.4-12.8,1.4-18.7c-1.1-3.3-5.9-3.3-6.9,0.1c-2.7,8.6-8.4,18.6-17.4,23.9"></path><line class="supprt_icon_1" x1="92.7" y1="35.9" x2="83.3" y2="35.9"></line><line class="supprt_icon_1" x1="89.8" y1="46" x2="82.1" y2="46"></line><line class="supprt_icon_1" x1="88.4" y1="56.1" x2="81.5" y2="56.1"></line><polyline class="supprt_icon_1" points="32.3,64.6 45,64.6 45,30.5 32.3,30.5"></polyline></g></g></svg>