<svg xmlns="http://www.w3.org/2000/svg" xmlns:xlink="http://www.w3.org/1999/xlink" x="0px" y="0px" viewBox="0 0 60 60" style="enable-background:new 0 0 60 60;" xml:space="preserve"><g>	<path d="M55.7,17.2c1,0,1.8-0.8,1.8-1.8c0-1-0.8-1.8-1.8-1.8H4.3c-1,0-1.8,0.8-1.8,1.8c0,1,0.8,1.8,1.8,1.8H55.7z"></path>	<path d="M44.7,30c0,1-0.8,1.8-1.8,1.8H4.3c-1,0-1.8-0.8-1.8-1.8c0-1,0.8-1.8,1.8-1.8h38.5C43.8,28.2,44.7,29,44.7,30z"></path>	<path d="M33.7,44.7c0,1-0.8,1.8-1.8,1.8H4.3c-1,0-1.8-0.8-1.8-1.8c0-1,0.8-1.8,1.8-1.8h27.5C32.8,42.8,33.7,43.7,33.7,44.7z"></path></g></svg>