<svg xmlns="http://www.w3.org/2000/svg" x="0px" y="0px" viewBox="0 0 50 50" style="enable-background:new 0 0 50 50;" xml:space="preserve">
<g>
	<g>
		<path d="M46.3,49H3.7c-1.5,0-2.6-1.2-2.6-2.5V3.6C1.1,2.2,2.2,1,3.7,1h42.7C47.9,1,49,2.2,49,3.6v42.9C48.9,47.8,47.8,49,46.3,49z
			 M3.7,2C2.8,2,2,2.7,2,3.6v42.9C2,47.3,2.8,48,3.7,48h42.7c0.9,0,1.7-0.7,1.7-1.6V3.6c0-0.9-0.8-1.6-1.7-1.6C46.4,2,3.7,2,3.7,2z"></path>
		<path d="M46.3,49.5H3.7c-1.7,0-3.2-1.4-3.2-3.1V3.6c0-1.7,1.4-3.1,3.2-3.1h42.7c1.7,0,3.2,1.4,3.2,3.1v42.9
			C49.4,48.2,48,49.5,46.3,49.5z M3.7,2.5C3.1,2.5,2.6,3,2.6,3.6v42.9c0,0.6,0.5,1.1,1.2,1.1h42.7c0.6,0,1.2-0.5,1.2-1.1V3.6
			c0-0.6-0.5-1.1-1.2-1.1H3.7z"></path>
	</g>
	<g>
		<path d="M16.5,22.5c-0.1,0-0.2,0-0.2-0.1C16.1,22.3,16,22.1,16,22V1.5C16,1.2,16.2,1,16.5,1h17.1C33.8,1,34,1.2,34,1.5v20.4
			c0,0.2-0.1,0.4-0.3,0.4c-0.2,0.1-0.4,0.1-0.5,0L25,16.4l-8.2,5.9C16.7,22.4,16.6,22.5,16.5,22.5z M17,2v19l7.8-5.6
			c0.2-0.1,0.4-0.1,0.6,0L33,21V2H17z"></path>
		<path d="M16.5,23c-0.3,0-0.5-0.1-0.6-0.3c-0.2-0.2-0.4-0.5-0.4-0.7V1.5c0-0.6,0.4-1,1-1h17.1c0.6,0,1,0.4,1,1v20.4
			c0,0.5-0.3,0.8-0.7,0.9c-0.4,0.2-0.7,0.1-1-0.1L25,17l-7.9,5.7C17,22.8,16.8,23,16.5,23z M16.4,21.9l0,0.5L16.4,21.9L16.4,21.9
			L16.4,21.9C16.4,21.9,16.4,21.9,16.4,21.9z M16.8,22.3L16.8,22.3C16.8,22.3,16.8,22.3,16.8,22.3z M16.5,22L16.5,22l0.1,0.1
			C16.6,22,16.5,22,16.5,22z M33.7,21.7C33.7,21.7,33.7,21.8,33.7,21.7L33.7,21.7z M25,14.8c0.2,0,0.3,0,0.5,0.1l7,5V2.5H17.5V20
			l6.9-5C24.6,14.9,24.8,14.8,25,14.8z"></path>
	</g>
	<g>
		<path d="M16.5,36.8H7.9c-0.3,0-0.5-0.2-0.5-0.5c0-0.3,0.2-0.5,0.5-0.5h8.5c0.3,0,0.5,0.2,0.5,0.5C17,36.6,16.8,36.8,16.5,36.8z"></path>
		<path d="M16.5,37.3H7.9c-0.6,0-1-0.4-1-1c0-0.6,0.4-1,1-1h8.5c0.6,0,1,0.4,1,1C17.5,36.8,17,37.3,16.5,37.3z M16.5,36.2l-8.6,0
			L16.5,36.2C16.5,36.2,16.5,36.2,16.5,36.2z"></path>
	</g>
	<g>
		<path d="M27.2,42.8H7.9c-0.3,0-0.5-0.2-0.5-0.5c0-0.3,0.2-0.5,0.5-0.5h19.2c0.3,0,0.5,0.2,0.5,0.5C27.7,42.6,27.5,42.8,27.2,42.8z
			"></path>
		<path d="M27.2,43.3H7.9c-0.6,0-1-0.4-1-1c0-0.6,0.4-1,1-1h19.2c0.6,0,1,0.4,1,1C28.2,42.9,27.7,43.3,27.2,43.3z M27.2,42.3
			l-19.2,0L27.2,42.3C27.2,42.3,27.2,42.3,27.2,42.3z"></path>
	</g>
</g>
</svg>