<svg xmlns="http://www.w3.org/2000/svg" x="0px" y="0px" viewBox="0 0 50 50" style="enable-background:new 0 0 50 50;" xml:space="preserve">
<g>
	<g>
		<path d="M5.6,12.3c-0.3,0-0.5-0.2-0.5-0.5V1.5C5.1,1.2,5.3,1,5.6,1s0.5,0.3,0.5,0.5v10.2C6.1,12,5.9,12.3,5.6,12.3z"></path>
		<path d="M5.6,12.8c-0.6,0-1-0.4-1-1V1.5c0-0.6,0.4-1,1-1c0.6,0,1,0.5,1,1v10.2C6.6,12.3,6.2,12.8,5.6,12.8z"></path>
	</g>
	<g>
		<path d="M15.8,12.3H5.6c-0.3,0-0.5-0.2-0.5-0.5s0.2-0.5,0.5-0.5h10.2c0.3,0,0.5,0.2,0.5,0.5S16.1,12.3,15.8,12.3z"></path>
		<path d="M15.8,12.8H5.6c-0.6,0-1-0.4-1-1c0-0.6,0.4-1,1-1h10.2c0.6,0,1,0.4,1,1C16.8,12.4,16.4,12.8,15.8,12.8z M15.8,11.8
			l-10.2,0L15.8,11.8C15.8,11.8,15.8,11.8,15.8,11.8z"></path>
	</g>
	<g>
		<path d="M25,49C11.8,49,1,38.2,1,25c0-0.3,0.2-0.5,0.5-0.5S2,24.7,2,25c0,12.6,10.3,23,23,23c12.6,0,23-10.3,23-23
			C48,12.4,37.6,2,25,2c-0.3,0-0.5-0.2-0.5-0.5S24.7,1,25,1c13.2,0,24,10.8,24,24S38.2,49,25,49z"></path>
		<path d="M25,49.5c-13.5,0-24.5-11-24.5-24.5c0-0.6,0.4-1,1-1s1,0.4,1,1c0,12.4,10.1,22.5,22.5,22.5S47.5,37.4,47.5,25
			S37.4,2.5,25,2.5c-0.6,0-1-0.4-1-1s0.4-1,1-1c13.5,0,24.5,11,24.5,24.5S38.5,49.5,25,49.5z"></path>
	</g>
	<g>
		<path d="M5.6,12.3c-0.1,0-0.2,0-0.3-0.1C5.1,12,5,11.7,5.2,11.5C9.7,4.9,17.1,1,25,1c0.3,0,0.5,0.2,0.5,0.5S25.3,2,25,2
			C17.5,2,10.3,5.7,6.1,12C6,12.2,5.8,12.3,5.6,12.3z"></path>
		<path d="M5.6,12.8c-0.1,0-0.4,0-0.7-0.2c-0.4-0.4-0.5-1-0.1-1.4C9.4,4.5,17,0.5,25,0.5c0.6,0,1,0.4,1,1s-0.4,1-1,1
			c-7.5,0-14.4,3.6-18.5,9.8C6.4,12.6,6,12.8,5.6,12.8z M5.6,11.8l0,0.5L5.6,11.8C5.6,11.8,5.6,11.8,5.6,11.8z"></path>
	</g>
	<g>
		<path d="M26,26.5c-0.3,0-0.5-0.2-0.5-0.5V11.8c0-0.3,0.2-0.5,0.5-0.5c0.3,0,0.5,0.2,0.5,0.5V26C26.5,26.3,26.3,26.5,26,26.5z"></path>
		<path d="M26,27c-0.6,0-1-0.4-1-1V11.8c0-0.6,0.4-1,1-1c0.6,0,1,0.4,1,1V26C27,26.6,26.6,27,26,27z"></path>
	</g>
	<g>
		<path d="M38.2,26.5H26c-0.3,0-0.5-0.2-0.5-0.5c0-0.3,0.2-0.5,0.5-0.5h12.2c0.3,0,0.5,0.2,0.5,0.5C38.7,26.3,38.5,26.5,38.2,26.5z"></path>
		<path d="M38.2,27H26c-0.6,0-1-0.4-1-1c0-0.6,0.4-1,1-1h12.2c0.6,0,1,0.4,1,1C39.2,26.6,38.8,27,38.2,27z M38.2,26L26,26L38.2,26
			C38.2,26,38.2,26,38.2,26z"></path>
	</g>
</g>
</svg>