<svg xmlns="http://www.w3.org/2000/svg" xmlns:xlink="http://www.w3.org/1999/xlink" x="0px" y="0px" viewBox="0 0 100 100" style="enable-background:new 0 0 100 100;" xml:space="preserve"><path d="M95.1,22.6C94,21.5,92.5,21,91,21H9c-1.5,0-3,0.5-4.1,1.5l-0.1,0.1c-1.3,1.2-2.1,2.9-2.1,4.6v45.4c0,1.8,0.8,3.5,2.1,4.7 l0.1,0.1C6.1,78.5,7.5,79,9,79H91c1.5,0,3-0.5,4.1-1.5l0.1-0.1h0c1.3-1.2,2.1-2.9,2.1-4.7V27.3C97.3,25.5,96.5,23.8,95.1,22.6 L95.1,22.6z M61.9,50l31.9-23.9c0.2,0.4,0.2,0.8,0.2,1.2v45.4c0,0.4-0.1,0.8-0.2,1.2L61.9,50z M90.7,24.3L51.8,53.4 c-1.1,0.8-2.5,0.8-3.6,0L9.3,24.3L90.7,24.3z M6.3,73.9C6.1,73.5,6,73.1,6,72.7V27.3c0-0.4,0.1-0.8,0.2-1.2L38.1,50L6.3,73.9z  M9.3,75.7l31.6-23.7l5.3,4v0c2.2,1.7,5.3,1.7,7.6,0l5.4-4l31.6,23.7L9.3,75.7z"></path></svg>