<svg xmlns="http://www.w3.org/2000/svg" viewBox="0 0 40 40" style="enable-background:new 0 0 40 40;" xml:space="preserve"><g>	<path d="M31.2,25.7l-1.3,1.7c-0.8,1.1-2.2,1.7-3.5,1.7c-1.9-0.1-5.3-0.9-10.4-4.5c-4.9-3.8-6.6-6.7-7.2-8.5  c-0.4-1.3-0.2-2.8,0.6-3.8l1.3-1.7c0.1-0.1,0.2-0.2,0.4-0.2c0.2,0,0.3,0,0.4,0.1l4.1,3c0.1,0.1,0.2,0.2,0.2,0.4  c0,0.2,0,0.3-0.1,0.4l-1.3,1.6c-0.3,0.3-0.6,0.8-0.6,1.6c0.1,1.4,1.3,2.9,3.8,4.6l0.2,0.1c2.3,1.9,4.2,2.7,5.6,2.3  c0.7-0.2,1.2-0.6,1.4-0.9l1.3-1.6c0.2-0.3,0.6-0.3,0.8-0.1l4.1,3c0.1,0.1,0.2,0.2,0.2,0.4C31.3,25.4,31.3,25.6,31.2,25.7z"></path>	<path d="M0.8,39.8l4.1-7.5c-3.2-3.6-5-8.3-4.9-13.1C0.2,8.5,9.3,0,20.3,0.2C31.4,0.4,40.2,9.2,40,20s-9.3,19.3-20.3,19.1  c-3-0.1-5.9-0.7-8.6-2L0.8,39.8z M11.1,35.3c0.3,0,0.5,0.1,0.8,0.2c2.4,1.2,5.1,1.8,7.8,1.9c10,0.2,18.3-7.6,18.5-17.4  s-7.9-17.8-17.9-18C10.3,1.7,2,9.5,1.8,19.3c-0.1,4.4,1.5,8.6,4.4,11.9c0.5,0.6,0.6,1.3,0.2,2L4.3,37l6.3-1.7  C10.8,35.3,10.9,35.3,11.1,35.3z"></path></g></svg>