<svg xmlns="http://www.w3.org/2000/svg" xmlns:xlink="http://www.w3.org/1999/xlink" x="0px" y="0px" viewBox="0 0 100 100" style="enable-background:new 0 0 100 100;" xml:space="preserve"><path d="M29.8,40.1h1.9c0.8,0,1.4,0.3,1.9,0.8c0.5,0.5,0.8,1.1,0.8,1.9c0,0.8-0.3,1.4-0.8,1.9c-0.5,0.5-1.2,0.8-1.9,0.8h-1.9 c-0.8,0-1.4-0.3-1.9-0.8c-0.5-0.5-0.8-1.2-0.8-1.9c0-0.8,0.3-1.4,0.8-1.9C28.4,40.3,29,40.1,29.8,40.1z M53.1,40.9 c0.5,0.5,0.8,1.1,0.8,1.9c0,0.8-0.3,1.4-0.8,1.9c-0.5,0.5-1.2,0.8-1.9,0.8h-1.9c-0.8,0-1.4-0.3-1.9-0.8c-0.5-0.5-0.8-1.2-0.8-1.9 c0-0.8,0.3-1.4,0.8-1.9c0.5-0.5,1.1-0.8,1.9-0.8h1.9C51.9,40.1,52.5,40.3,53.1,40.9z M98.5,41.7c0.1,8.8-4.8,16.3-14.7,22.5 c-6.9,4.3-14.7,7-23.6,8.2L33.3,89.3c-0.5,0.3-1,0.4-1.5,0.4h-2c-0.6,0-1.2-0.2-1.7-0.6c-0.5-0.4-0.8-1-0.9-1.6 c-0.1-0.6,0-1.2,0.3-1.8l7.9-13.9c-7.1-1.4-13.5-3.9-19.2-7.5C6.3,58,1.4,50.5,1.5,41.7C1.4,33,6.3,25.4,16.2,19.1h0.1 c9.3-5.9,20.6-8.8,33.8-8.8c13.2,0,24.5,2.9,33.8,8.8C93.7,25.4,98.6,32.9,98.5,41.7L98.5,41.7z M80.9,59.7c8-5,12.1-11,12.2-17.9 c-0.1-6.9-4.2-12.9-12.2-18c-8.6-5.3-18.9-8-30.9-8c-12.1,0-22.4,2.7-30.9,8v-0.1C11.1,28.7,7,34.8,6.9,41.7 c0.1,6.9,4.2,12.9,12.2,17.9c6.1,3.8,13.1,6.3,21,7.4c0.6,0.1,1.1,0.3,1.6,0.8c0.4,0.4,0.6,1,0.8,1.6c0.1,0.6,0,1.1-0.3,1.7L36.4,81 l21.4-13.4c0.3-0.2,0.7-0.3,1.1-0.4C67.2,66.2,74.5,63.7,80.9,59.7L80.9,59.7z M71.9,40.9c0.5,0.5,0.8,1.1,0.8,1.9 c0,0.8-0.3,1.4-0.8,1.9c-0.5,0.5-1.2,0.8-1.9,0.8H68c-0.8,0-1.4-0.3-1.9-0.8c-0.5-0.5-0.8-1.2-0.8-1.9c0-0.8,0.3-1.4,0.8-1.9 c0.5-0.5,1.1-0.8,1.9-0.8h1.9C70.7,40.1,71.3,40.3,71.9,40.9z"></path></svg>