<svg xmlns="http://www.w3.org/2000/svg" x="0px" y="0px" viewBox="0 0 50 50" style="enable-background:new 0 0 50 50;" xml:space="preserve">
<path d="M24.1,8.9c-11,0.4-17.9,8-17.9,19.9c0,6.7,2.2,12.9,6.1,17.2c0.2,0.2-0.1,0.5-0.3,0.4C4.9,42,0,34.1,0,25
	C0,11.5,10.7,0.5,24.1,0C24.6,0,25,0.4,25,0.9v7.1C25,8.5,24.6,8.9,24.1,8.9z M25.9,41.1c11-0.4,17.9-8,17.9-19.9
	c0-6.7-2.2-12.9-6.1-17.2c-0.2-0.2,0.1-0.5,0.3-0.4C45.1,8,50,15.9,50,25c0,13.5-10.7,24.5-24.1,25c-0.5,0-0.9-0.4-0.9-0.9v-7.1
	C25,41.5,25.4,41.1,25.9,41.1z"></path>
</svg>