<svg xmlns="http://www.w3.org/2000/svg" xmlns:xlink="http://www.w3.org/1999/xlink" x="0px" y="0px" viewBox="0 0 100 100" style="enable-background:new 0 0 100 100;" xml:space="preserve">	<path d="M50,59.8c-16.2,0-29.4-13.2-29.4-29.4S33.8,1,50,1s29.4,13.2,29.4,29.4S66.2,59.8,50,59.8z M50,7.5  c-12.6,0-22.9,10.3-22.9,22.9S37.4,53.3,50,53.3S72.9,43,72.9,30.4S62.6,7.5,50,7.5z"></path>	<path d="M95.7,99c-1.8,0-3.3-1.5-3.3-3.3c0-22.5-12.8-35.9-34.2-35.9H41.7c-21.4,0-34.2,13.4-34.2,35.9c0,1.8-1.5,3.3-3.3,3.3  S1,97.5,1,95.7c0-25.8,16-42.5,40.7-42.5h16.6C83,53.3,99,69.9,99,95.7C99,97.5,97.5,99,95.7,99z"></path></svg>