<svg xmlns="http://www.w3.org/2000/svg" xmlns:xlink="http://www.w3.org/1999/xlink" x="0px" y="0px" viewBox="0 0 50 50" style="enable-background:new 0 0 50 50;" xml:space="preserve"><g>	<path d="M46.5,15.5L25.9,6.9c-0.6-0.2-1.3-0.2-1.8,0L3.5,15.5c-1.2,0.5-1.8,1.9-1.3,3.1c0.2,0.6,0.7,1,1.3,1.3l1.3,0.6v13.4H4.7  c-0.7,0-1.3,0.6-1.3,1.3s0.6,1.3,1.3,1.3h0.1v2H4.4c-0.7,0-1.3,0.6-1.3,1.3S3.7,41,4.4,41h0.4v1c0,0.7,0.6,1.3,1.3,1.3  s1.3-0.6,1.3-1.3v-1h0.4C8.5,41,9,40.4,9,39.7s-0.6-1.3-1.3-1.3H7.4v-2h0.1c0.7,0,1.3-0.6,1.3-1.3s-0.6-1.3-1.3-1.3H7.4V21.6l2.5,1  v8.5c0,1.2,0.6,2.4,1.7,3c4,2.6,8.7,3.9,13.4,3.8H25c4.7,0.1,9.4-1.3,13.4-3.8c1-0.7,1.7-1.8,1.7-3v-8.5l6.4-2.7  c1.2-0.5,1.8-1.9,1.3-3.1C47.6,16.2,47.1,15.8,46.5,15.5z M37.6,31.2c0,0.4-0.2,0.7-0.5,0.9c-3.6,2.3-7.8,3.5-12,3.4H25  c-4.3,0.1-8.4-1.1-12-3.4c-0.3-0.2-0.5-0.5-0.5-0.9v-7.5l11.6,4.9l0,0c0.6,0.2,1.3,0.2,1.8,0l11.6-4.9V31.2z M25,26.2L4.8,17.7  L25,9.3l20.2,8.4L25,26.2z"></path></g></svg>