<svg xmlns="http://www.w3.org/2000/svg" xmlns:xlink="http://www.w3.org/1999/xlink" x="0px" y="0px" viewBox="0 0 100 100" style="enable-background:new 0 0 100 100;" xml:space="preserve"><path d="M97.9,93L78.1,73.4c14.8-17.1,14-43-2.4-59.4C67.3,5.4,56.1,1.2,45,1.2S22.6,5.4,14.1,14c-17.1,17.1-17.1,44.7,0,61.9 c8.4,8.4,19.7,12.8,30.9,12.8c10.1,0,20.3-3.5,28.4-10.6l19.8,19.8c0.5,0.5,1.3,0.8,2.2,0.8s1.7-0.3,2.4-1 C99.1,96.6,99.1,94.4,97.9,93z M18.8,71C11.7,64.1,8,54.7,8,45s3.9-19.2,10.8-26.2C25.8,11.7,35.1,8,45,8s19.2,3.9,26.2,10.8 C78.1,25.8,82,35,82,45s-3.9,19.2-10.8,26.2C64.2,78.1,54.7,81.9,45,81.9S25.8,78.1,18.8,71z"></path></svg>