<svg xmlns="http://www.w3.org/2000/svg" xmlns:xlink="http://www.w3.org/1999/xlink" x="0px" y="0px" viewBox="0 0 100 100" style="enable-background:new 0 0 100 100;" xml:space="preserve"><g>	<path d="M50,2.7c-22,0-40,17.9-40,40c0,21.6,36.4,51.8,38,53l2,1.6l2-1.6c1.5-1.3,38-31.5,38-53C90,20.6,72,2.7,50,2.7z M50,89.2  c-11-9.4-33.7-32-33.7-46.6C16.3,24.1,31.4,8.9,50,8.9c18.6,0,33.7,15.1,33.7,33.7C83.7,57.2,61,79.8,50,89.2z"></path>	<polygon points="50,2.7 50,2.7 50,2.7  "></polygon>	<path d="M50,24.1c-10.2,0-18.5,8.3-18.5,18.5c0,10.2,8.3,18.5,18.5,18.5c10.2,0,18.5-8.3,18.5-18.5C68.5,32.4,60.2,24.1,50,24.1z   M50,55c-6.8,0-12.3-5.5-12.3-12.3c0-6.8,5.5-12.3,12.3-12.3c6.8,0,12.3,5.5,12.3,12.3C62.3,49.4,56.8,55,50,55z"></path></g></svg>