<svg xmlns="http://www.w3.org/2000/svg" xmlns:xlink="http://www.w3.org/1999/xlink" x="0px" y="0px" viewBox="0 0 100 100" style="enable-background:new 0 0 100 100;" xml:space="preserve"><g>	<path d="M93.2,72.3c-8.1-5.1-15.6-8.3-23-9.6c-2.8-0.5-5.7,0.4-7.8,2.4l-4.6,4.4c-0.5,0.5-1.3,0.6-1.9,0.3  c-5.4-3.1-10.4-6.9-14.9-11.4c-3.4-3.4-6.5-7.2-9.1-11.2c-0.4-0.7-0.4-1.5,0.2-2.1l5-5.4c2-2.1,2.8-5,2.4-7.8  c-1.3-7.4-4.4-15-9.6-23c-2.2-3.5-6.4-5.1-10.3-3.9c-3.6,1.1-7.2,3.3-10.8,6.5c-4.3,3.8-6.6,9.6-6.2,15.4  C3.6,43,11.8,59.6,25.7,73.5c15,15,33,23.3,50,23.3h0c1.5,0,3.1-0.1,4.6-0.2c6.1-0.6,11.6-3.9,14.6-9.1c0.9-1.6,1.7-3.3,2.2-4.9  C98.3,78.8,96.7,74.5,93.2,72.3z M93.2,81.4c-0.4,1.3-1.1,2.7-1.8,4.1c-2.3,4-6.6,6.7-11.4,7.1c-17.1,1.6-35.8-6.5-51.3-22  c-13.2-13.2-21-28.8-22-44c-0.3-4.6,1.5-9.1,4.8-12.1c3.1-2.8,6.3-4.7,9.3-5.7c0.5-0.1,0.9-0.2,1.4-0.2v0c1.7,0,3.3,0.9,4.3,2.4  c4.9,7.6,7.8,14.7,9,21.6c0.3,1.5-0.2,3.1-1.3,4.3l-5,5.4c-1.8,1.9-2,4.8-0.6,7.1c2.8,4.2,6,8.2,9.7,11.8  c4.8,4.8,10.1,8.8,15.8,12.1c2.1,1.2,4.9,0.9,6.7-0.8l4.6-4.4c1.2-1.1,2.8-1.6,4.3-1.3c6.9,1.2,13.9,4.2,21.5,9  C93,76.9,93.9,79.3,93.2,81.4z"></path>	<path d="M50,7.2c24,0,43.5,19.5,43.5,43.5c0,1.1,0.9,2,2,2l0,0c1.1,0,2-0.9,2-2C97.5,24.5,76.2,3.2,50,3.2c-1.1,0-2,0.9-2,2  C48,6.3,48.9,7.2,50,7.2z"></path>	<path d="M50,23.7c14.9,0,27,12.1,27,27c0,1.1,0.9,2,2,2l0,0c1.1,0,2-0.9,2-2c0-17.1-13.9-31.1-31.1-31.1c-1.1,0-2,0.9-2,2  C48,22.8,48.9,23.7,50,23.7z"></path></g></svg>