<svg xmlns="http://www.w3.org/2000/svg" viewBox="0 0 50 50" style="enable-background:new 0 0 50 50;" xml:space="preserve"><g>	<path d="M45.6,16.8C45.1,7.1,36-0.5,25.4,0C15.5,0.5,7.6,7.6,7,16.7c-3,0.3-5.2,2.5-5.2,5.2v1.2c-2,1.3-2.4,3.9-0.9,5.7  c0.3,0.3,0.6,0.6,0.9,0.8c0,0.3,0.1,0.6,0.1,1c-0.6,4.2,0.6,11.7,14,15.7c0,0,0,0.1,0,0.1c0,2,1.7,3.6,3.9,3.6s4-1.6,4-3.6  c0-2-1.7-3.6-3.9-3.6c-1.6,0-3.1,0.9-3.7,2.3c-10.3-3.1-12.8-8.4-13-12.3c1.1,1.2,2.7,1.8,4.4,1.9h0.2c3.2,0,5.8-2.4,5.8-5.3v-7.5  c0-2.7-2.2-4.9-5.1-5.2c0.6-9.1,9.2-16,19.1-15.4c9.1,0.5,16.3,7.1,16.8,15.4h-0.2c-3.2,0-5.8,2.4-5.8,5.3v7.4  c0,2.9,2.6,5.3,5.8,5.3h0.2c3.2,0,5.8-2.4,5.8-5.3v-7.5C50,19.5,48.2,17.4,45.6,16.8z"></path></g></svg>