<svg xmlns="http://www.w3.org/2000/svg" x="0px" y="0px" viewBox="0 0 45 45" style="enable-background:new 0 0 45 45;" xml:space="preserve"><path d="M32.5,14.6C32.5,14.6,32.4,14.6,32.5,14.6c-0.3-0.1-0.4-0.3-0.4-0.5l2.3-9.3v0c0-0.1,0.1-0.2,0.2-0.3 c0.1-0.1,0.2-0.1,0.3-0.1c0.1,0,0.2,0.1,0.3,0.2c0.1,0.1,0.1,0.2,0,0.3l-2.3,9.3C32.8,14.5,32.7,14.6,32.5,14.6z"></path><path d="M32.5,15.1l-0.2,0c-0.2-0.1-0.4-0.2-0.5-0.4c-0.1-0.2-0.2-0.4-0.1-0.7l2.3-9.3c0-0.2,0.2-0.4,0.4-0.6C34.5,4,34.7,4,35,4 c0.2,0.1,0.4,0.2,0.6,0.4c0.1,0.2,0.2,0.5,0.1,0.7l-2.3,9.3C33.3,14.9,32.9,15.1,32.5,15.1z"></path><path d="M22.5,40.5c-0.1,0-0.3-0.1-0.3-0.2c-0.1-0.1-0.1-0.3,0-0.4L32,14.3l-9.8-9.1c-0.1-0.1-0.2-0.3-0.1-0.4 c0.1-0.2,0.2-0.3,0.4-0.3h12.3c0.1,0,0.2,0,0.3,0.1l9.3,9.3v0c0.1,0.1,0.2,0.4,0,0.5L22.8,40.4v0C22.7,40.5,22.6,40.5,22.5,40.5 L22.5,40.5z M23.5,5.3l9.2,8.6h0c0.1,0.1,0.2,0.3,0.1,0.4L23.8,38l19.8-23.7l-8.9-8.9L23.5,5.3z"></path><path d="M22.5,41c-0.3,0-0.6-0.1-0.7-0.4c-0.2-0.2-0.2-0.6-0.1-0.8l9.8-25.3l-9.6-8.9c-0.3-0.3-0.4-0.6-0.2-1 C21.8,4.2,22.1,4,22.5,4h12.3c0.2,0,0.5,0.1,0.6,0.3l9.3,9.3c0.3,0.3,0.4,0.9,0.1,1.2L23.2,40.7C23,40.9,22.8,41,22.5,41L22.5,41z  M24.8,5.8l8.3,7.8c0.3,0.3,0.4,0.6,0.2,1l-8,20.7l17.5-21l-8.5-8.5L24.8,5.8z"></path><path d="M12.5,14.6c-0.2,0-0.3-0.1-0.4-0.3L9.8,5c0-0.1,0-0.2,0-0.3c0.1-0.1,0.1-0.2,0.3-0.2c0.1,0,0.2,0,0.3,0.1 c0.1,0.1,0.2,0.2,0.2,0.3l2.3,9.3v0C12.9,14.4,12.8,14.6,12.5,14.6C12.6,14.6,12.5,14.6,12.5,14.6z"></path><path d="M12.5,15.1c-0.4,0-0.8-0.3-0.9-0.7L9.4,5.1c-0.1-0.2,0-0.5,0.1-0.7C9.6,4.2,9.8,4.1,10,4c0.2-0.1,0.5,0,0.7,0.1 c0.2,0.1,0.4,0.3,0.4,0.6l2.3,9.3c0.1,0.2,0,0.5-0.1,0.7c-0.1,0.2-0.3,0.4-0.6,0.4L12.5,15.1z M10.1,4.9L10.1,4.9L10.1,4.9L10.1,4.9 z"></path><path d="M44.1,14.6H0.9c-0.2,0-0.4-0.2-0.4-0.4s0.2-0.4,0.4-0.4h43.2c0.2,0,0.4,0.2,0.4,0.4S44.3,14.6,44.1,14.6z"></path><path d="M44.1,15.1H0.9c-0.5,0-0.9-0.4-0.9-0.9s0.4-0.9,0.9-0.9h43.2c0.5,0,0.9,0.4,0.9,0.9S44.6,15.1,44.1,15.1z"></path><path d="M22.5,40.5c-0.1,0-0.2-0.1-0.3-0.1L0.6,14.5c-0.1-0.2-0.1-0.4,0-0.5l9.3-9.3c0.1-0.1,0.2-0.1,0.3-0.1h12.3 c0.2,0,0.3,0.1,0.4,0.3c0.1,0.2,0,0.3-0.1,0.4L13,14.3L22.9,40c0,0.1,0,0.3,0,0.4C22.8,40.4,22.6,40.5,22.5,40.5L22.5,40.5z  M1.5,14.3L21.2,38l-9.1-23.6c-0.1-0.2,0-0.3,0.1-0.4l9.2-8.6H10.4L1.5,14.3z"></path><path d="M22.5,41L22.5,41c-0.3,0-0.5-0.1-0.7-0.3L0.2,14.8c-0.3-0.4-0.3-0.9,0.1-1.2l9.3-9.3C9.8,4.1,10,4,10.2,4h12.3 c0.4,0,0.7,0.2,0.8,0.6c0.1,0.3,0,0.7-0.2,1l-9.6,8.9l9.8,25.3c0.1,0.3,0.1,0.6-0.1,0.8C23.1,40.9,22.8,41,22.5,41z M2.1,14.3 l17.5,21l-8-20.7c-0.1-0.3,0-0.7,0.2-1l8.3-7.8h-9.6L2.1,14.3z"></path></svg>