<svg xmlns="http://www.w3.org/2000/svg" xmlns:xlink="http://www.w3.org/1999/xlink" x="0px" y="0px" viewBox="0 0 105 16" style="enable-background:new 0 0 105 16;" xml:space="preserve"><style type="text/css">	.wdt-custom-star-icon-class-1{fill:#F6C800;}</style><g>	<path class="wdt-custom-star-icon-class-1" d="M12.7,11l-0.2-1l0.8-0.7c0,0,0,0,0,0l2.2-1.9l0.8-0.7C16.7,6.3,16.6,6,16,5.9l-2-0.2l-3.1-0.3L9.7,2.7L8.9,0.9  c-0.2-0.5-0.6-0.5-0.8,0L7.3,2.7L6.1,5.5L3,5.8L1,5.9C0.4,6,0.3,6.3,0.8,6.7l3,2.6c0,0,0,0,0,0L4.6,10l-0.2,1c0,0,0,0,0,0l-0.9,3.8  c-0.1,0.6,0.2,0.8,0.7,0.5l3-1.7l1.4-0.8l2.6,1.5l1.7,1c0.5,0.3,0.8,0.1,0.7-0.5L13.1,13L12.7,11C12.7,11,12.7,11,12.7,11L12.7,11z  "></path>	<path class="wdt-custom-star-icon-class-1" d="M34.7,11l-0.2-1l0.8-0.7c0,0,0,0,0,0l2.2-1.9l0.8-0.7C38.7,6.3,38.6,6,38,5.9l-2-0.2l-3.1-0.3l-1.2-2.8  l-0.8-1.8c-0.2-0.5-0.6-0.5-0.8,0l-0.8,1.8l-1.2,2.8L25,5.8l-2,0.2c-0.6,0.1-0.7,0.4-0.3,0.8l3,2.6c0,0,0,0,0,0l0.8,0.7l-0.2,1  c0,0,0,0,0,0l-0.9,3.8c-0.1,0.6,0.2,0.8,0.7,0.5l3-1.7l1.4-0.8l2.6,1.5l1.7,1c0.5,0.3,0.8,0.1,0.7-0.5L35.1,13L34.7,11  C34.7,11,34.7,11,34.7,11L34.7,11z"></path>	<path class="wdt-custom-star-icon-class-1" d="M56.7,11l-0.2-1l0.8-0.7c0,0,0,0,0,0l2.2-1.9l0.8-0.7C60.7,6.3,60.6,6,60,5.9l-2-0.2l-3.1-0.3l-1.2-2.8  l-0.8-1.8c-0.2-0.5-0.6-0.5-0.8,0l-0.8,1.8l-1.2,2.8L47,5.8l-2,0.2c-0.6,0.1-0.7,0.4-0.3,0.8l3,2.6c0,0,0,0,0,0l0.8,0.7l-0.2,1  c0,0,0,0,0,0l-0.9,3.8c-0.1,0.6,0.2,0.8,0.7,0.5l3-1.7l1.4-0.8l2.6,1.5l1.7,1c0.5,0.3,0.8,0.1,0.7-0.5L57.1,13L56.7,11  C56.7,11,56.7,11,56.7,11L56.7,11z"></path>	<path class="wdt-custom-star-icon-class-1" d="M78.7,11l-0.2-1l0.8-0.7c0,0,0,0,0,0l2.2-1.9l0.8-0.7C82.7,6.3,82.6,6,82,5.9l-2-0.2l-3.1-0.3l-1.2-2.8  l-0.8-1.8c-0.2-0.5-0.6-0.5-0.8,0l-0.8,1.8l-1.2,2.8L69,5.8l-2,0.2c-0.6,0.1-0.7,0.4-0.3,0.8l3,2.6c0,0,0,0,0,0l0.8,0.7l-0.2,1  c0,0,0,0,0,0l-0.9,3.8c-0.1,0.6,0.2,0.8,0.7,0.5l3-1.7l1.4-0.8l2.6,1.5l1.7,1c0.5,0.3,0.8,0.1,0.7-0.5L79.1,13L78.7,11  C78.7,11,78.7,11,78.7,11L78.7,11z"></path>	<path class="wdt-custom-star-icon-class-1" d="M100.7,11l-0.2-1l0.8-0.7c0,0,0,0,0,0l2.2-1.9l0.8-0.7c0.4-0.4,0.3-0.7-0.3-0.8l-2-0.2l-3.1-0.3l-1.2-2.8  l-0.8-1.8c-0.2-0.5-0.6-0.5-0.8,0l-0.8,1.8l-1.2,2.8L91,5.8l-2,0.2c-0.6,0.1-0.7,0.4-0.3,0.8l3,2.6c0,0,0,0,0,0l0.8,0.7l-0.2,1  c0,0,0,0,0,0l-0.9,3.8c-0.1,0.6,0.2,0.8,0.7,0.5l3-1.7l1.4-0.8l2.6,1.5l1.7,1c0.5,0.3,0.8,0.1,0.7-0.5l-0.4-1.9L100.7,11  C100.7,11,100.7,11,100.7,11L100.7,11z"></path></g></svg>