<svg xmlns="http://www.w3.org/2000/svg" xmlns:xlink="http://www.w3.org/1999/xlink" x="0px" y="0px" viewBox="0 0 50 50" style="enable-background:new 0 0 50 50;" xml:space="preserve"><path d="M33.7,6.1c3.3-3.3,8.2-3.4,10.9-0.7c2.7,2.7,2.6,7.6-0.7,11l-5.6,5.7c-0.7,0.7-0.7,1.8,0,2.5c0.7,0.7,1.8,0.7,2.5,0l5.6-5.7 c4.4-4.5,5-11.6,0.7-15.9c-4.3-4.3-11.4-3.8-15.9,0.7L19.9,15c-4.4,4.5-5,11.6-0.7,15.9c0.7,0.7,1.8,0.7,2.5,0 c0.7-0.7,0.7-1.8,0-2.5c-2.7-2.7-2.6-7.6,0.7-11L33.7,6.1z"></path><path d="M30.8,19.1c-0.7-0.7-1.8-0.7-2.5,0c-0.7,0.7-0.7,1.8,0,2.5c2.7,2.7,2.6,7.6-0.7,11L16.3,43.9c-3.3,3.3-8.2,3.4-10.9,0.7 c-2.7-2.7-2.6-7.6,0.7-11l5.6-5.7c0.7-0.7,0.7-1.8,0-2.5c-0.7-0.7-1.8-0.7-2.5,0l-5.6,5.7c-4.4,4.5-5,11.6-0.7,15.9 c4.3,4.3,11.4,3.8,15.9-0.7L30.1,35C34.5,30.6,35.1,23.4,30.8,19.1z"></path></svg>