<svg xmlns="http://www.w3.org/2000/svg" xmlns:xlink="http://www.w3.org/1999/xlink" x="0px" y="0px" viewBox="0 0 80 80" style="enable-background:new 0 0 80 80;" xml:space="preserve"><style type="text/css">	.counter_icon_6{fill:none;stroke:currentcolor;stroke-width:3.107;stroke-linecap:round;stroke-linejoin:round;stroke-miterlimit:10;}</style><g><path class="counter_icon_6" d="M46.3,14.6c-0.3-1.2-0.9-2.6-1.7-4.1C43.3,8,41.2,5.4,38,3.7c-4-2.2-8.8-2.2-13-0.4c-2.7,1.1-5.7,3.2-7.9,6.8c-0.8,1.3-1.5,2.9-1.9,4.7c-0.4,1.7,0.1,3.5,1.5,4.7c1.3,1.1,1.6,2,1.8,3.2v0l0,0c1.3,7,6.4,14.7,12.4,14.7c6,0,11.1-7.5,12.4-14.6c0.1-0.4,0.2-0.9,0.3-1.3c0.3-0.8,0.7-1.4,1.7-2.5c0.1-0.1,0.2-0.2,0.3-0.4C46.5,17.5,46.7,16,46.3,14.6z"></path><path class="counter_icon_6" d="M16.6,19.5c7.8-1.3,15.1-1.2,19.4-5.3"></path></g><polygon class="counter_icon_6" points="58.1,42.4 30.8,48.6 30.8,77.9 58.1,71.7 "></polygon><polyline class="counter_icon_6" points="30.8,77.9 3.4,71.7 3.4,42.4 30.8,48.6 "></polyline><line class="counter_icon_6" x1="40.5" y1="40.3" x2="49.7" y2="44.3"></line><line class="counter_icon_6" x1="21" y1="40.3" x2="11.8" y2="44.3"></line><path class="counter_icon_6" d="M52.6,23.1V7.1c0-1.9,1.5-3.4,3.4-3.4h16.7c1.9,0,3.4,1.5,3.4,3.4v14.8c0,1.9-1.5,3.4-3.4,3.4H60.6L53,31.9"></path><path class="counter_icon_6" d="M64.8,14.1c0-0.3-0.2-0.5-0.5-0.5c-0.3,0-0.5,0.2-0.5,0.5s0.2,0.5,0.5,0.5C64.6,14.6,64.8,14.4,64.8,14.1z"></path><path class="counter_icon_6" d="M70.4,14.1c0-0.3-0.2-0.5-0.5-0.5c-0.3,0-0.5,0.2-0.5,0.5s0.2,0.5,0.5,0.5C70.2,14.6,70.4,14.4,70.4,14.1z"></path><path class="counter_icon_6" d="M58.3,14.1c0-0.3,0.2-0.5,0.5-0.5c0.3,0,0.5,0.2,0.5,0.5s-0.2,0.5-0.5,0.5C58.5,14.6,58.3,14.4,58.3,14.1z"></path></svg>