<svg xmlns="http://www.w3.org/2000/svg" xmlns:xlink="http://www.w3.org/1999/xlink" x="0px" y="0px" viewBox="0 0 70 70" style="enable-background:new 0 0 70 70;" xml:space="preserve"><g>	<path d="M11.5,8.8C10.4,9,9.3,10.7,7.6,8.6C7.4,8.4,7.3,8.2,7.1,8c0,0.5,0.6,1.2-0.5,3.6c-0.2,0.5-0.5,1-0.9,1.4  c1.9-1.3,3.2-0.5,4.5,1.1c-0.4-1.2-0.4-2.6,0.2-3.7C10.8,9.8,11.2,9.3,11.5,8.8z"></path>	<path d="M22.7,59.9c-0.1,1.1,0.8,2.1,2,2.1c1.7,0,2.7-2.1,1.5-3.4c-0.4-0.4-0.9-0.6-1.4-0.7C23.6,57.9,22.7,58.8,22.7,59.9z   M24.6,61.2c-0.7,0-1.2-0.6-1.2-1.3c0-0.7,0.6-1.2,1.2-1.2c0,0,0,0,0.1,0c0.3,0,0.6,0.2,0.9,0.4C26.3,60,25.7,61.3,24.6,61.2z"></path>	<path d="M58.6,22.4c0.1-1.3-0.9-2.5-2.2-2.6c-1.3-0.1-2.5,0.9-2.6,2.2c-0.1,0.6,0.1,1.3,0.6,1.8c0.4,0.5,1,0.8,1.6,0.8  c0.1,0,0.1,0,0.2,0C57.4,24.6,58.5,23.7,58.6,22.4z M56.1,23.8c-0.9-0.1-1.6-0.9-1.5-1.8c0.1-0.9,0.8-1.6,1.8-1.5  c0.9,0.1,1.6,0.9,1.5,1.8C57.8,23.2,57,23.9,56.1,23.8z"></path>	<path d="M65.9,31.4c0.3-0.1-0.4-2.1-2-1.9c-0.4,0-0.8,0.2-1.2,0.3c-0.7,0.1-1.8,0.4-2.8,0.6c-0.5,0.1-1.1,0.2-1.7,0.7  c-0.3,0.3-0.5,0.7-0.5,1.1c-0.1,1.2,0.5,0.7,2.3,11.4c-1.4,0.7-2.7,1.4-4,2c-3.2,1.4-6.4,1.9-8,2.4c0.6-0.6,1.1-1.4,1.3-2.4  c0.1-0.8-0.1-1.8-0.8-2c1-2.3,0-3.8-1.1-3.9c0,0,0,0,0,0c0.5-1.4-0.2-2.7-1.7-2.7c0.9-1.5,0-3.3-1.7-3.2c0,0,0,0,0,0  c0.3-0.3,0.5-0.5,0.7-0.7c0.3-0.4,0.4-0.7,0.3-0.8c-0.2-0.1-1,0.5-2,1c-0.1,0-0.6,0.3-1,0.4c0.1,0.2,0.2,0.6,0.3,0.8  c0,0.1,0.6,1.9-1,4c-0.7,1-1.7,1.1-1.9-0.1c-0.3-1.1,0.1-2.5-0.6-4c-0.6-1.1-1.2-1.8-0.1-2.9c1.3-1.7,7.1-4.7,1.2-2  c-0.6,0.3-1.2,0.6-2,1.2c-0.5,0.5-1,1.3-0.9,2.2c0,0.3,0.1,0.6,0.3,0.9c-1.1,0.2-2.4,1.8-2.2,3.4c0.1,1.1,0.8,2,1.9,2.4  c-2.2,1.1-1.5,4.8,2,4.9c-1,1.4-0.1,3.2,2,3.4c-0.3,0.5-0.1,1.6,0.9,2.2c1.5,0.7,3.3-0.2,4.8-0.9c2.3,0.1,7.6-1.5,10-2.5  c1.4-0.6,2.7-1.4,4.1-2c0,0,0,0,0,0c0.2,0.2,0.5,0.2,0.7,0.2c0.1,0,3.3-0.1,3.2-0.1c0.6,0,1.6,0,2.2-0.3c0.7-0.5,1-1.1,1.2-2  c0.8-3.3,0.1-6-1.1-9.1C66.3,32.2,66.3,32.4,65.9,31.4z M44.8,35.9c-0.2,0.6-0.8,1.1-1.5,1.4c-0.2,0.2-0.3,0.2-0.4,0.3  c0.4-1,0.6-2,0.4-3c0.2,0,0.5,0.1,0.8,0.1C44.6,34.8,44.9,35.2,44.8,35.9z M35.9,37c-0.2-1.2,1-2.1,1.5-2.5  c0.8,1.5,0.2,2.7,0.7,4.3c-0.3,0-0.6-0.1-0.9-0.3C36.5,38.4,36,37.8,35.9,37z M36.6,42c-0.3-0.6-0.2-1.2,0.1-1.6  c0.4-0.6,0.9-0.7,1.7-1c0.7,1.1,2,1.1,2.8,0.5c0.5-0.4,0.9-0.9,1.2-1.4c0.6,0,0.4-0.1,1.3-0.2c0.3-0.1,0.2-0.1,0.5-0.2  c1-0.3,2.2-0.5,2.2,0.6c0,2.3-5.4,4.5-7.2,4.6C38,43.5,36.9,43,36.6,42z M39.3,45.9c-0.3-0.5-0.1-1,0.1-1.5  c1.4-0.2,2.6-0.8,3.8-1.2c2.7-1.2,3.3-2.3,3.6-2.5c0.1,0,0.2-0.1,0.4,0c1.1,0.2,1.2,3.8-3.7,5.6c-1,0.4-2.1,0.7-3,0.5  C39.9,46.6,39.5,46.3,39.3,45.9z M42,49c-0.5-0.1-1.1-0.6-1-1.2c0.9,0,1.8-0.3,2.8-0.6c1.7-0.6,3.3-1.5,4.3-3.1  c0.1,0.2,0.2,0.6,0.1,1.2c-0.2,1.2-1.2,2.2-2.5,2.8C44.4,48.8,43,49.5,42,49z M64.4,34.8c0.6,1.2,0.9,2.5,0.9,3.8  c-0.3,0.8-0.4,1.1-0.5,1.1c-0.1,0-0.2-0.4-0.6-1.1c0-1.1-0.3-2.3-0.8-3.3C62.8,34.1,63.8,33.6,64.4,34.8z"></path>	<path d="M46.5,27.1c-0.9-0.1-1.5,0.1-1.9,0.2c-0.4,0.2-0.6,0.4-0.5,0.5c0.1,0.3,0.9,0.3,2.3,0.4c2.8,0.3,5.3,2.4,8.1,3.5  c1.9,0.4,2.9,0.4,2.9,0.3c0-0.1-0.9-0.4-2.5-1.3C51.8,29.4,49.5,27.5,46.5,27.1z"></path>	<path d="M34.7,27.4c0.3,0,0.7-0.9,1.2-2.8c1-3.5,2.8-6.8,5.2-9.6c1.2-2,2.1-2.8,2-2.9c-0.1-0.1-1,0.6-2.8,2.2  c-2.5,2.9-4.4,6.3-5.5,10C34.3,26.3,34.5,27.4,34.7,27.4z"></path>	<path d="M27,22.2c1.1,1.3,2.1,2.6,3,4.1c0.9,1.5,1.9,1,1-0.6c-0.9-1.5-1.9-2.9-3.1-4.2C25.8,20.4,26,20.3,27,22.2z"></path>	<path d="M14.3,21c2.8,0.7,5.5,1.8,8,3.4c1.3,0.8,2,1.1,2.2,0.9c0.2-0.2-0.3-1-1.6-1.8c-2.5-1.7-5.4-2.9-8.3-3.6  c-1.9,0-2.8,0-2.9,0.1C11.7,20.2,12.6,20.4,14.3,21z"></path>	<path d="M4,52.5c0.5,1,0.5,0.8,1,1.7c-0.2,0.1,0.6,2,2.2,1.6c0.4-0.1,0.8-0.2,1.1-0.4c3.1-0.9,3.8-1.1,4.3-1.7  c0.5-0.6,0.4-1.3,0.1-2c-0.4-1-0.7-1.9-1.1-2.9c-0.4-1.1-2-6.7-2.2-7.3c1.2-0.9,2.4-1.3,3.6-2.2c2.1-1.5,2.8-3.7,4.7-5.3  c2.6-2.3,6.2-3,9.4-1.9c1.1,0.3,2,1,3.1,1.3c0.9,0.2,1.5,0.1,1.6,0.6c0.1,0.4-0.2,0.8-0.5,1.1c-1.2-0.7-2.3-0.7-3.7-0.6L25,34.5  c-3.7,0.1-3.7,1.2,0,1.1c3.3-0.1,4.2-0.2,5,0.1c0.7,0.2,1.3,0.7,1.3,1.3c0.1,0.6-0.3,1.3-0.9,1.7c-0.6,0.7-1.5,0.9-2,1.1  c-0.5,0.2-0.8,0.3-0.8,0.3c0,0.1,0.3,0.1,0.8,0.1c0.4,0,1.1,0,1.9-0.3c0.1,0.1,0.1,0.1,0.2,0.2c0.4,0.3,0.3,1.9-1,2.8  c-0.4,0.8-0.9,1-0.8,1.1c0,0.1,0.3,0.1,0.7,0c0.1,0.1,0.3,0.2,0.5,0.4c0.6,0.4,0.5,1.6-0.7,2.3c-0.6,0.9-1.3,1.1-0.5,1.1  c0.1,0.2,1.2,0.6,0.5,1.8c-0.3,0.6-1.1,1-1.9,1.4c-2.5,1.2-5,2-7.7,1.6c-4.6,0-4.6-0.2-0.1,1.1c2.9,0.4,5.6-0.5,8.3-1.7  c0.8-0.4,1.8-0.8,2.4-1.8c0.5-0.9,0.4-2-0.5-2.5c0,0,0.1,0,0.1,0c2-1.1,2.1-3.3,0.8-4.2c1.1-1.1,1.8-3.1,0.7-4.1  c1.2-1.1,1.4-2.9,0-4c0,0,0,0,0,0c0.5-0.3,0.9-0.8,0.9-1.4c0-1.3-1.5-1.4-2.1-1.6c-0.8-0.2-1.7-0.9-3-1.3  c-3.6-1.2-7.6-0.4-10.5,2.1c-2,1.7-2.7,3.9-4.6,5.3c-1.1,0.8-2.5,1.4-3.7,2.3c-0.3-0.1-0.4,0-1.2,0.1c-0.1,0-2.4,0.4-2.3,0.4  c-1.7,0.3-2.7,0.2-3.1,2.6C1.5,47,2.5,49.6,4,52.5z M5.9,46.4c0.4,1.3,1,2.6,1.5,3.9c0.2,1.8,0.4,1.7-1,0.4c-0.6-1.3-1.1-2.6-1.6-4  C4.4,45.3,5.4,45,5.9,46.4z"></path></g></svg>