<svg xmlns="http://www.w3.org/2000/svg" xmlns:xlink="http://www.w3.org/1999/xlink" id="Layer_1" x="0px" y="0px" viewBox="0 0 100 100" style="enable-background:new 0 0 100 100;" xml:space="preserve"><style type="text/css">	.st0{opacity:0.99;enable-background:new    ;}</style><path class="st0" d="M10.6,5c6.6,0,13.1,0,19.7,0c3.4,1,5.3,3.3,5.7,6.9c0,5.9,1,11.6,2.8,17.2c0.3,1.9,0,3.6-0.9,5.3 c-2.9,3.7-5.7,7.4-8.5,11.2c4,7.9,9.6,14.5,16.7,19.9c2.7,1.9,5.5,3.6,8.3,5.2c3.5-2.7,7.1-5.4,10.6-8.2c1.3-0.8,2.8-1.3,4.4-1.3 c3.3,0.7,6.6,1.5,9.8,2.2c3.3,0.5,6.7,0.8,10,0.9c2.9,0.8,4.8,2.7,5.6,5.5c0,6.6,0,13.1,0,19.7c-0.9,2.9-2.8,4.7-5.6,5.6 c-2.2,0-4.5,0-6.7,0c-28.8-2.6-50.9-16.1-66.2-40.4C9.7,43,5.9,30.6,5,17.3c0-2.2,0-4.5,0-6.7C5.9,7.8,7.8,5.9,10.6,5z"></path></svg>