<svg xmlns="http://www.w3.org/2000/svg" viewBox="0 0 30 30"><path d="M17.71.3l.18,0a12.63,12.63,0,0,1,7,4.52L25,5a12.75,12.75,0,0,1,2.54,9.22,16.53,16.53,0,0,1-3.19,7.27l-.13.18a22.58,22.58,0,0,1-1.65,2l-.32.36c-.22.26-.47.51-.71.76l-.14.14-.29.29-.44.45-.29.28a1.59,1.59,0,0,1-.13.13,9.2,9.2,0,0,1-.72.68l-.54.5-.79.73c-.14.11-.27.24-.4.36l-.64.56-.25.24a2.73,2.73,0,0,1-2.13.88,3.24,3.24,0,0,1-2-1.2l-.53-.47-.4-.36-.53-.47c-.9-.8-1.77-1.63-2.62-2.49l-.38-.39A11.73,11.73,0,0,1,7.21,23.4c-.12-.15-.24-.29-.37-.43a20.79,20.79,0,0,1-3-4.44l-.07-.13A12.78,12.78,0,0,1,3,8.66a13.21,13.21,0,0,1,3.1-5l.13-.14a12.23,12.23,0,0,1,6-3.25l.17,0A12.53,12.53,0,0,1,17.71.3ZM12.55,2.11l-.23.05A9.82,9.82,0,0,0,7.65,4.77,1.32,1.32,0,0,1,7.39,5a5.67,5.67,0,0,0-.58.62l-.12.14A10.78,10.78,0,0,0,4.26,11.4l0,.16C3.88,15,5.41,18.24,7.5,20.89l.12.15.13.16.4.48.07.1c.7.83,1.44,1.62,2.21,2.39l.1.1c.32.33.65.65,1,.95l.3.29a6.39,6.39,0,0,0,.54.5l.41.38.52.46.56.5A2.88,2.88,0,0,0,15,28.2a1.19,1.19,0,0,0,.65-.44l.29-.26.15-.14.37-.33.56-.5.55-.5c.89-.78,1.75-1.6,2.58-2.45l.1-.1c.36-.35.7-.71,1-1.09l.16-.2a25.4,25.4,0,0,0,1.92-2.49l.09-.13a11.88,11.88,0,0,0,2.18-8.85,10.31,10.31,0,0,0-2.7-5.37,1.32,1.32,0,0,1-.23-.26,4.76,4.76,0,0,0-.61-.58l-.14-.12A10.81,10.81,0,0,0,16.84,2l-.17,0A10.09,10.09,0,0,0,15,1.86h-.14A9.62,9.62,0,0,0,12.55,2.11Z"></path><path d="M19,8.34a5.79,5.79,0,0,1,1.52,4.15,5.7,5.7,0,0,1-1.79,3.91,5.84,5.84,0,0,1-4.31,1.44,4.93,4.93,0,0,1-1.91-.54l-.16-.08a5.88,5.88,0,0,1-1.06-.73l-.1-.08a5.35,5.35,0,0,1-1.79-3.47,6,6,0,0,1,1.22-4.27,5.78,5.78,0,0,1,3.88-2A5.93,5.93,0,0,1,19,8.34ZM12.31,9.53a4,4,0,0,0-1.11,2.69A3.84,3.84,0,0,0,12.38,15l.12.12a3.67,3.67,0,0,0,2.74.94,3.15,3.15,0,0,0,1-.19l.15,0a3.79,3.79,0,0,0,2-1.85,3.79,3.79,0,0,0-6-4.42Z"></path></svg>