<svg xmlns="http://www.w3.org/2000/svg" x="0px" y="0px" viewBox="0 0 45 45" style="enable-background:new 0 0 45 45;" xml:space="preserve"><path d="M44.7,17.4c-0.1-0.2-0.3-0.4-0.5-0.4l-14.4-2.4L23.1,1.7c-0.2-0.4-0.9-0.4-1.1,0l-6.8,12.9L0.8,17c-0.2,0-0.4,0.2-0.5,0.4 c-0.1,0.2,0,0.5,0.1,0.6l10.2,10.4L8.5,42.9c0,0.2,0.1,0.5,0.2,0.6c0.2,0.1,0.4,0.2,0.6,0.1l13.1-6.5l13.1,6.5 c0.1,0,0.2,0.1,0.3,0.1c0.1,0,0.3,0,0.4-0.1c0.2-0.1,0.3-0.4,0.2-0.6l-2.1-14.4l10.2-10.4C44.7,17.9,44.7,17.7,44.7,17.4L44.7,17.4z  M33.2,27.8c-0.1,0.1-0.2,0.3-0.2,0.5l2,13.6l-12.3-6.1c-0.2-0.1-0.4-0.1-0.5,0L10,41.9l2-13.6c0-0.2,0-0.4-0.2-0.5L2.2,18l13.5-2.3 c0.2,0,0.4-0.1,0.4-0.3l6.4-12.2l6.4,12.2c0.1,0.2,0.3,0.3,0.4,0.3L42.8,18L33.2,27.8L33.2,27.8z"></path><path d="M35.8,43.9c-0.1,0-0.3,0-0.4-0.1l-12.9-6.4L9.5,43.8c-0.3,0.1-0.7,0.1-0.9-0.1c-0.3-0.2-0.4-0.5-0.4-0.8l2.1-14.3L0.3,18.3 C0,18-0.1,17.7,0,17.4c0.1-0.3,0.4-0.5,0.7-0.6L15,14.4l6.7-12.8c0.1-0.3,0.4-0.5,0.8-0.5s0.6,0.2,0.8,0.5L30,14.4l14.3,2.4 c0.3,0.1,0.6,0.3,0.7,0.6l0.1,0.2l-0.1,0c0,0.2-0.1,0.5-0.3,0.6L34.6,28.6l2.1,14.3c0,0.3-0.1,0.7-0.4,0.9 C36.2,43.8,36,43.9,35.8,43.9z M22.5,36.8l0.1,0.1l13.1,6.5c0.1,0.1,0.3,0,0.3,0c0.1-0.1,0.2-0.2,0.1-0.3L34,28.4l10.3-10.5 c0.1-0.1,0.1-0.2,0.1-0.3l0-0.1c-0.1-0.1-0.1-0.1-0.2-0.1l-14.5-2.4L22.8,1.8c-0.1-0.2-0.5-0.2-0.6,0l-6.8,13.1L0.8,17.3 c-0.1,0-0.2,0.1-0.3,0.2c0,0.1,0,0.2,0.1,0.3L11,28.4L8.8,43c0,0.1,0,0.2,0.1,0.3c0.1,0.1,0.2,0.1,0.4,0L22.5,36.8z M35.4,42.4 l-12.8-6.3c-0.1,0-0.2,0-0.3,0L9.6,42.4l2.1-14.1c0-0.1,0-0.2-0.1-0.3l-10-10.2l14.1-2.4c0.1,0,0.2-0.1,0.2-0.2l6.6-12.6l6.6,12.6 c0,0.1,0.1,0.2,0.2,0.2l14,2.4l-10,10.2c-0.1,0.1-0.1,0.2-0.1,0.3L35.4,42.4z M2.7,18.2l9.2,9.4c0.2,0.2,0.3,0.5,0.2,0.8l-1.9,13 l11.8-5.9c0.3-0.1,0.5-0.1,0.8,0l11.8,5.9l-1.9-13c0-0.3,0.1-0.6,0.2-0.8l0.1-0.1l9.1-9.3l-13-2.2c-0.3,0-0.5-0.2-0.6-0.5L22.5,3.9 l-6.1,11.7C16.3,15.8,16,16,15.7,16L2.7,18.2z"></path></svg>