<svg xmlns="http://www.w3.org/2000/svg" xmlns:xlink="http://www.w3.org/1999/xlink" x="0px" y="0px" viewBox="0 0 100 100" style="enable-background:new 0 0 100 100;" xml:space="preserve"><path d="M7.4,99c-1.6,0-3.3-0.6-4.5-1.9c-2.5-2.5-2.5-6.6,0-9.1L88,2.9c2.5-2.5,6.6-2.5,9.1,0c2.5,2.5,2.5,6.6,0,9.1 L12,97.1C10.7,98.4,9.1,99,7.4,99z"></path><path d="M92.5,82.4c-3.5,0-6.4-2.9-6.4-6.4V13.9H24c-3.5,0-6.4-2.9-6.4-6.4c0-3.5,2.9-6.4,6.4-6.4h68.5 c3.5,0,6.4,2.9,6.4,6.4V76C98.9,79.5,96,82.4,92.5,82.4L92.5,82.4z"></path></svg>