<svg xmlns="http://www.w3.org/2000/svg" xmlns:xlink="http://www.w3.org/1999/xlink" x="0px" y="0px" viewBox="0 0 50 50" style="enable-background:new 0 0 50 50;" xml:space="preserve"><path d="M25,0.4l6.9,6.3l9.4-0.4l1.3,9.3l7.4,5.7l-5,7.9l2,9.2l-8.9,2.9l-4.4,8.3L25,46.1l-8.7,3.5l-4.4-8.3L3,38.5l2-9.2l-5-7.9 l7.4-5.7l1.3-9.3l9.4,0.4L25,0.4z M25,4.1l-5.1,4.6l-0.8,0.8l-1.1,0l-6.9-0.3L10.2,16L10,17.1l-0.9,0.7L3.7,22l3.7,5.8l0.6,1 l-0.2,1.1l-1.4,6.7l6.5,2.1l1.1,0.3l0.5,1l3.2,6.1l6.4-2.6l1.1-0.4l1,0.4l6.4,2.6l3.2-6.1l0.5-1l1.1-0.3l6.5-2.1l-1.5-6.7L42,28.8 l0.6-1l3.7-5.8l-5.4-4.2L40,17.1L39.8,16l-0.9-6.8l-6.9,0.3l-1.1,0l-0.8-0.8L25,4.1z M33.9,20.1l1.7,2.2L20.9,33.4l-6.6-6.6l2-2 l4.9,4.9L33.9,20.1L33.9,20.1z"></path></svg>