<svg xmlns="http://www.w3.org/2000/svg" xmlns:xlink="http://www.w3.org/1999/xlink" x="0px" y="0px" viewBox="0 0 100 100" style="enable-background:new 0 0 100 100;" xml:space="preserve"><g>	<path d="M91.3,2.5c1.6,0,3.2,0.6,4.4,1.8c2.4,2.4,2.4,6.4,0,8.8L13.2,95.7c-2.4,2.4-6.4,2.4-8.8,0c-2.4-2.4-2.4-6.4,0-8.8L86.8,4.3  C88.1,3.1,89.7,2.5,91.3,2.5z"></path>	<path d="M8.8,18.6c3.4,0,6.2,2.8,6.2,6.2V85h60.2c3.4,0,6.2,2.8,6.2,6.2s-2.8,6.2-6.2,6.2H8.8c-3.4,0-6.2-2.8-6.2-6.2V24.8  C2.6,21.4,5.4,18.6,8.8,18.6L8.8,18.6z"></path></g></svg>