<svg xmlns="http://www.w3.org/2000/svg" xmlns:xlink="http://www.w3.org/1999/xlink" x="0px" y="0px" viewBox="0 0 50 50" style="enable-background:new 0 0 50 50;" xml:space="preserve"><g>	<g>		<path d="M31.8,32.3c2.6,0,4.7,2.1,4.7,4.7v3.1l0,0.2c-0.6,4.4-4.6,6.6-11.3,6.6   c-6.7,0-10.7-2.1-11.6-6.5l0-0.3V37c0-2.6,2.1-4.7,4.7-4.7H31.8z M31.8,35.4H18.2c-0.9,0-1.6,0.7-1.6,1.6v3   c0.6,2.5,3.2,3.8,8.5,3.8c5.2,0,7.8-1.3,8.2-3.8v-3C33.3,36.1,32.6,35.4,31.8,35.4z M33.8,19.8l11.5,0c2.6,0,4.7,2.1,4.7,4.7v3.1   l0,0.2c-0.6,4.4-4.6,6.6-11.3,6.6l-0.7,0l0,0c-0.6-1.5-1.7-2.7-3.2-3.4c1.1,0.2,2.3,0.3,3.8,0.3c5.2,0,7.8-1.3,8.2-3.8v-3   c0-0.9-0.7-1.6-1.6-1.6H34.4C34.4,21.8,34.2,20.8,33.8,19.8z M4.7,19.8l11.5,0c-0.3,0.8-0.5,1.7-0.5,2.6l0,0.5H4.7   c-0.9,0-1.6,0.7-1.6,1.6v3c0.6,2.5,3.2,3.8,8.5,3.8c1.3,0,2.4-0.1,3.4-0.2c-1.4,0.7-2.4,1.9-3,3.4l-0.4,0   c-6.7,0-10.7-2.1-11.6-6.5l0-0.3v-3.1C0,21.9,2.1,19.8,4.7,19.8z M25,15.6c4,0,7.3,3.3,7.3,7.3S29,30.2,25,30.2s-7.3-3.3-7.3-7.3   S21,15.6,25,15.6z M25,18.7c-2.3,0-4.2,1.9-4.2,4.2s1.9,4.2,4.2,4.2s4.2-1.9,4.2-4.2S27.3,18.7,25,18.7z M38.5,3.1   c4,0,7.3,3.3,7.3,7.3s-3.3,7.3-7.3,7.3s-7.3-3.3-7.3-7.3S34.5,3.1,38.5,3.1z M11.5,3.1c4,0,7.3,3.3,7.3,7.3s-3.3,7.3-7.3,7.3   s-7.3-3.3-7.3-7.3S7.4,3.1,11.5,3.1z M38.5,6.2c-2.3,0-4.2,1.9-4.2,4.2s1.9,4.2,4.2,4.2c2.3,0,4.2-1.9,4.2-4.2S40.8,6.2,38.5,6.2z    M11.5,6.2c-2.3,0-4.2,1.9-4.2,4.2s1.9,4.2,4.2,4.2s4.2-1.9,4.2-4.2S13.8,6.2,11.5,6.2z"></path>	</g></g></svg>