<svg xmlns="http://www.w3.org/2000/svg" x="0px" y="0px" viewBox="0 0 45 45" style="enable-background:new 0 0 45 45;" xml:space="preserve"><path d="M22.5,26.4c-7.7,0-14-6.3-14-14V1.9c0-0.3,0.2-0.6,0.6-0.6H36c0.3,0,0.6,0.2,0.6,0.6v10.5C36.5,20.1,30.2,26.4,22.5,26.4 L22.5,26.4z M9.6,2.4v10c0,7.1,5.8,12.9,12.9,12.9s12.9-5.8,12.9-12.9v-10L9.6,2.4L9.6,2.4z"></path><path d="M22.5,26.9c-8,0-14.5-6.5-14.5-14.5V1.9C8,1.3,8.5,0.8,9,0.8H36c0.6,0,1.1,0.5,1.1,1.1v10.5C37,20.4,30.5,26.9,22.5,26.9z  M9,1.8C9,1.8,9,1.8,9,1.8L9,12.4c0,7.5,6.1,13.5,13.5,13.5c7.4,0,13.5-6.1,13.5-13.5V1.9c0,0,0-0.1-0.1-0.1H9z M22.5,25.8 c-7.4,0-13.4-6-13.4-13.4V1.9h26.8v10.4C35.9,19.8,29.9,25.8,22.5,25.8z M10.1,2.9v9.5c0,6.8,5.6,12.4,12.4,12.4 c6.8,0,12.4-5.6,12.4-12.4V2.9H10.1z"></path><path d="M25.8,17.7c-0.1,0-0.2,0-0.3-0.1l-3-2.2l-3,2.2c-0.2,0.1-0.5,0.1-0.7,0c-0.2-0.1-0.3-0.4-0.2-0.6l1.2-3.5l-3-2.2 c-0.2-0.1-0.3-0.4-0.2-0.6c0.1-0.2,0.3-0.4,0.5-0.4l3.7,0l1.1-3.5c0.1-0.2,0.3-0.4,0.5-0.4c0.2,0,0.5,0.2,0.5,0.4l1.1,3.5l3.7,0 c0.2,0,0.5,0.2,0.5,0.4c0.1,0.2,0,0.5-0.2,0.6l-3,2.2l1.2,3.5c0.1,0.2,0,0.5-0.2,0.6C26,17.7,25.9,17.7,25.8,17.7L25.8,17.7z  M22.5,14.2c0.1,0,0.2,0,0.3,0.1l1.9,1.4L24,13.4c-0.1-0.2,0-0.5,0.2-0.6l1.9-1.4h-2.4c-0.2,0-0.5-0.2-0.5-0.4l-0.7-2.3L21.7,11 c-0.1,0.2-0.3,0.4-0.5,0.4h-2.4l1.9,1.4c0.2,0.1,0.3,0.4,0.2,0.6l-0.7,2.3l1.9-1.4C22.3,14.2,22.4,14.2,22.5,14.2L22.5,14.2z"></path><path d="M25.8,18.2L25.8,18.2c-0.2,0-0.4-0.1-0.6-0.2l-2.7-2l-2.7,2c-0.4,0.3-0.9,0.3-1.2,0c-0.4-0.3-0.5-0.8-0.4-1.2l1-3.2l-2.7-2 c-0.4-0.3-0.5-0.8-0.4-1.2c0.1-0.4,0.5-0.7,1-0.7l3.4,0l1-3.2c0.1-0.4,0.5-0.7,1-0.7c0.5,0,0.9,0.3,1,0.7l1,3.2l3.4,0 c0.5,0,0.9,0.3,1,0.7c0.1,0.4,0,0.9-0.4,1.2l-2.7,2l1,3.2c0.1,0.4,0,0.9-0.4,1.2C26.3,18.1,26.1,18.2,25.8,18.2L25.8,18.2z  M22.5,14.8l3.3,2.4l0,0.7v-0.7c0,0,0.1-0.1,0-0.1l-1.3-3.9l3.3-2.4c0,0,0-0.1,0-0.1l-3.8,0l-0.4,0l-1.2-3.9l0,0l-0.1,0l-1.3,3.9 l-4.1,0L17,10.8l3.3,2.5l-1.3,3.9c0.1,0.1,0.1,0.1,0.1,0.1L22.5,14.8z M25.7,17l-3.1-2.3l0-0.9v0.9L19.3,17l1.2-3.7l-3.2-2.4h3.9 l1.3-3.8l1.2,3.7l4,0.1l-3.2,2.3c0,0,0,0.1,0,0.1L25.7,17z M20.3,11.9l0.7,0.5c0.4,0.3,0.5,0.8,0.4,1.2l-0.3,0.8l0.7-0.5 c0.2-0.1,0.4-0.2,0.6-0.2h0c0.2,0,0.4,0.1,0.6,0.2l0.7,0.5l-0.3-0.8c-0.1-0.4,0-0.9,0.4-1.2l0.7-0.5h-0.9c-0.5,0-0.9-0.3-1-0.7 l-0.3-0.8l-0.3,0.8c-0.1,0.4-0.5,0.7-1,0.7H20.3z"></path><path d="M10.1,18.1c-0.1,0-0.2,0-0.2,0c-3.2-1.4-5.6-3.1-7.2-4.9C1.2,11.5,0.5,9.7,0.5,8c0-2.2,1.3-4.1,3.2-4.9 c1.9-0.8,4.1-0.4,5.7,1.2c0.2,0.2,0.2,0.6,0,0.8c-0.2,0.2-0.6,0.2-0.8,0c-1.3-1.2-3-1.6-4.5-0.9C2.6,4.8,1.6,6.4,1.6,8.1 c0,1.5,0.8,5.5,8.7,9c0.3,0.1,0.4,0.5,0.3,0.7C10.5,18,10.3,18.1,10.1,18.1L10.1,18.1z"></path><path d="M10.1,18.6c-0.1,0-0.3,0-0.4-0.1c-3.2-1.4-5.7-3.1-7.4-5.1C0.8,11.7,0,9.9,0,8c0-2.4,1.4-4.5,3.5-5.4 c2.1-0.9,4.4-0.4,6.2,1.2c0.4,0.4,0.4,1.1,0,1.5c-0.4,0.4-1.1,0.4-1.5,0C7.1,4.4,5.7,4,4.3,4.6C3,5.2,2.1,6.5,2.1,8.1 c0,1.4,0.8,5.1,8.4,8.5c0.3,0.1,0.5,0.3,0.6,0.6c0.1,0.3,0.1,0.6,0,0.8c0,0.1-0.1,0.2-0.2,0.2l0.4,0.4L10.1,18.6z M10,17.6L10,17.6 c0.1,0,0.1,0,0.1-0.1c0,0,0-0.1-0.1-0.1c-8.1-3.6-9-7.8-9-9.4c0-1.9,1.1-3.6,2.8-4.3c1.7-0.7,3.6-0.3,5,1c0,0,0.1,0,0.1,0 c0,0,0-0.1,0-0.1C7.6,3.2,5.6,2.8,3.9,3.6C2.1,4.3,1,6.1,1,8.1c0,1.6,0.7,3.2,2,4.7C4.5,14.6,6.9,16.2,10,17.6L10,17.6z"></path><path d="M34.9,18.1c-0.2,0-0.4-0.1-0.5-0.3c-0.1-0.3,0-0.6,0.3-0.7c7.9-3.5,8.7-7.4,8.7-9c0-1.7-1-3.2-2.5-3.9 c-1.5-0.6-3.2-0.3-4.5,0.9c-0.2,0.2-0.6,0.2-0.8,0c-0.2-0.2-0.2-0.6,0-0.8c1.7-1.5,3.8-2,5.7-1.2C43.2,4,44.5,5.9,44.5,8 c0,1.7-0.7,3.4-2.1,5.1c-1.6,1.9-4,3.5-7.2,4.9C35.1,18.1,35,18.1,34.9,18.1L34.9,18.1z"></path><path d="M34.9,18.6h-1.2l0.4-0.4C34,18.1,34,18,34,17.9c-0.1-0.2-0.1-0.5,0-0.8c0.1-0.3,0.3-0.5,0.6-0.6c7.6-3.4,8.4-7.1,8.4-8.5 c0-1.5-0.9-2.9-2.2-3.4c-1.3-0.6-2.8-0.2-4,0.8c-0.4,0.4-1.1,0.4-1.5,0c-0.4-0.4-0.4-1.1,0-1.5c1.8-1.7,4.1-2.2,6.3-1.2 C43.6,3.6,45,5.7,45,8c0,1.8-0.8,3.7-2.2,5.4c-1.7,1.9-4.1,3.6-7.4,5.1C35.2,18.6,35.1,18.6,34.9,18.6z M39.3,3.4 c0.6,0,1.2,0.1,1.7,0.4c1.7,0.7,2.8,2.4,2.8,4.3c0,1.6-0.9,5.8-9,9.4c0,0-0.1,0.1,0,0.1H35c3.1-1.4,5.5-3,7-4.8c1.3-1.5,2-3.2,2-4.7 c0-2-1.2-3.7-2.9-4.5c-1.7-0.8-3.7-0.4-5.2,1.1c0,0,0,0.1,0,0.1c0,0,0.1,0,0.1,0C37,3.8,38.2,3.4,39.3,3.4z"></path><path d="M32.2,43.7H12.8c-0.3,0-0.6-0.2-0.6-0.6v-3.9c0-0.3,0.2-0.6,0.6-0.6h19.3c0.3,0,0.6,0.2,0.6,0.6v3.9 C32.7,43.5,32.5,43.7,32.2,43.7L32.2,43.7z M13.4,42.6h18.2v-2.8H13.4L13.4,42.6z"></path><path d="M32.2,44.2H12.8c-0.6,0-1.1-0.5-1.1-1.1v-3.9c0-0.6,0.5-1.1,1.1-1.1h19.3c0.6,0,1.1,0.5,1.1,1.1v3.9 C33.2,43.7,32.7,44.2,32.2,44.2z M12.8,39.1C12.8,39.1,12.7,39.2,12.8,39.1l-0.1,4c0,0.1,0,0.1,0.1,0.1h19.3c0,0,0.1,0,0.1-0.1v-3.9 c0,0,0-0.1-0.1-0.1H12.8z M32.1,43.1H12.9v-3.8h19.2V43.1z M13.9,42.1h17.2v-1.8H13.9V42.1z"></path><path d="M29.4,39.8H15.6c-0.3,0-0.6-0.2-0.6-0.6v-3.9c0-0.3,0.2-0.6,0.6-0.6h13.8c0.3,0,0.6,0.2,0.6,0.6v3.9 C29.9,39.5,29.7,39.8,29.4,39.8L29.4,39.8z M16.2,38.7h12.6v-2.8H16.2V38.7z"></path><path d="M29.4,40.3H15.6c-0.6,0-1.1-0.5-1.1-1.1v-3.9c0-0.6,0.5-1.1,1.1-1.1h13.8c0.6,0,1.1,0.5,1.1,1.1v3.9 C30.4,39.8,29.9,40.3,29.4,40.3z M15.6,35.2C15.6,35.2,15.5,35.3,15.6,35.2l-0.1,4c0,0.1,0,0.1,0.1,0.1h13.8c0,0,0.1,0,0.1-0.1v-3.9 c0,0,0-0.1-0.1-0.1H15.6z M29.3,39.2H15.7v-3.8h13.6V39.2z M16.7,38.2h11.7v-1.8H16.7V38.2z"></path><path d="M17.7,35.9c-0.1,0-0.2,0-0.3-0.1c-0.3-0.2-0.4-0.5-0.2-0.8c2.9-4.9,0-9.8,0-9.8c-0.2-0.3-0.1-0.6,0.2-0.8 c0.3-0.2,0.6-0.1,0.8,0.2c0.1,0.2,3.2,5.4,0,10.9C18,35.8,17.8,35.9,17.7,35.9L17.7,35.9z"></path><path d="M17.7,36.4c-0.2,0-0.3,0-0.5-0.1c-0.3-0.2-0.4-0.4-0.5-0.7c-0.1-0.3,0-0.6,0.1-0.8c2.7-4.7,0-9.3,0-9.3 c-0.3-0.5-0.1-1.2,0.4-1.5c0.5-0.3,1.2-0.1,1.4,0.4c0.1,0.2,3.3,5.7,0,11.4c-0.1,0.2-0.2,0.3-0.4,0.4v0.1L17.7,36.4z M17.6,35.4 L17.6,35.4c3.2-5.3,0.2-10.3,0.1-10.5c0,0-0.1,0-0.1,0c0,0,0,0.1,0,0.1l0,0c0,0,3,5.1,0,10.3L17.6,35.4z"></path><path d="M27.3,35.9c-0.2,0-0.4-0.1-0.5-0.3c-3.2-5.5-0.1-10.7,0-10.9c0.2-0.3,0.5-0.4,0.8-0.2c0.3,0.2,0.4,0.5,0.2,0.8 c0,0.1-2.8,4.9,0,9.8c0.2,0.3,0.1,0.6-0.2,0.8C27.5,35.8,27.4,35.9,27.3,35.9L27.3,35.9z"></path><path d="M27.3,36.4h-1.2l0.4-0.4c0,0-0.1-0.1-0.1-0.1c-3.4-5.8-0.1-11.2,0-11.5c0.1-0.2,0.4-0.4,0.7-0.5c0.3-0.1,0.6,0,0.8,0.1 c0.2,0.1,0.4,0.4,0.5,0.7c0.1,0.3,0,0.6-0.1,0.8c0,0-2.7,4.6,0,9.3c0.1,0.2,0.1,0.4,0.1,0.6h0.1l-0.1,0.1c0,0.3-0.2,0.6-0.5,0.8 C27.7,36.3,27.5,36.4,27.3,36.4z M27.4,24.9L27.4,24.9L27.4,24.9c-0.1,0.1-3.1,5.2-0.1,10.5h0.1c0,0,0,0,0-0.1c-3-5.2,0-10.3,0-10.3 l0,0L27.4,24.9z"></path></svg>