<svg xmlns="http://www.w3.org/2000/svg" xmlns:xlink="http://www.w3.org/1999/xlink" x="0px" y="0px" viewBox="0 0 100 100" style="enable-background:new 0 0 100 100;" xml:space="preserve">	<path d="M75.4,99H24.6c-3.9,0-7.5-1.6-10.1-4.4c-2.6-2.8-3.8-6.4-3.6-10.1l4.7-56.2c0.4-4.3,4-7.7,8.4-7.7h52.2c4.4,0,8,3.3,8.4,7.7  l4.7,56.2c0.3,3.8-1,7.4-3.6,10.1C83,97.4,79.3,99,75.4,99z M23.9,27.1c-1,0-1.8,0.7-1.9,1.7L17.3,85c-0.1,1.9,0.5,3.7,1.8,5.1  c1.4,1.5,3.3,2.3,5.4,2.3h50.9c2.1,0,4-0.8,5.4-2.3c1.3-1.4,2-3.3,1.8-5.2l-4.7-56.1c-0.1-1-0.9-1.7-1.9-1.7H23.9z"></path>	<path d="M66.3,40.2c-1.8,0-3.3-1.5-3.3-3.3V13.6c0-3.3-3.4-6.1-7.6-6.1H44.6c-4.2,0-7.6,2.7-7.6,6.1v23.3c0,1.8-1.5,3.3-3.3,3.3  c-1.8,0-3.3-1.5-3.3-3.3V13.6C30.4,6.7,36.7,1,44.6,1h10.9c7.8,0,14.2,5.7,14.2,12.6v23.3C69.6,38.7,68.1,40.2,66.3,40.2z"></path></svg>