<svg class="wdt-custom-arrow" xmlns="http://www.w3.org/2000/svg" xmlns:xlink="http://www.w3.org/1999/xlink" x="0px" y="0px" viewBox="0 0 16 16" style="enable-background:new 0 0 16 16;" xml:space="preserve">
									<g><path d="M10.5,2.7l4.8,4.8c0.3,0.3,0.3,0.8,0,1.1l-4.8,4.8c-0.3,0.3-0.8,0.3-1.1,0c-0.3-0.3-0.3-0.8,0-1.1l3.5-3.5H0.5V7.3h12.4
										L9.4,3.8C9.2,3.5,9.2,3,9.4,2.7C9.7,2.4,10.2,2.4,10.5,2.7z"></path></g>
									<g><path d="M10.5,2.7l4.8,4.8c0.3,0.3,0.3,0.8,0,1.1l-4.8,4.8c-0.3,0.3-0.8,0.3-1.1,0c-0.3-0.3-0.3-0.8,0-1.1l3.5-3.5H0.5V7.3h12.4
										L9.4,3.8C9.2,3.5,9.2,3,9.4,2.7C9.7,2.4,10.2,2.4,10.5,2.7z"></path></g>
								</svg>