<svg xmlns="http://www.w3.org/2000/svg" x="0px" y="0px" viewBox="0 0 59 59" style="enable-background:new 0 0 59 59;" xml:space="preserve"><g>	<path d="M41.9,17.1H17.1c-0.6,0-1.1-0.5-1.2-1.1c0-0.6,0.5-1.1,1.1-1.2c0,0,0,0,0.1,0h24.9  c0.6,0,1.1,0.5,1.2,1.1C43.1,16.6,42.6,17.1,41.9,17.1C42,17.1,42,17.1,41.9,17.1"></path>	<path d="M41.9,23.1H17.1c-0.6,0-1.1-0.5-1.2-1.1c0-0.6,0.5-1.1,1.1-1.2c0,0,0,0,0.1,0h24.9  c0.6,0,1.1,0.5,1.2,1.1C43.1,22.6,42.6,23.1,41.9,23.1C42,23.1,42,23.1,41.9,23.1"></path>	<path d="M29.5,29.2H17.1c-0.6,0-1.1-0.5-1.2-1.1c0-0.6,0.5-1.1,1.1-1.2c0,0,0,0,0.1,0h12.4  c0.6,0,1.1,0.5,1.2,1.1C30.7,28.6,30.2,29.1,29.5,29.2C29.5,29.2,29.5,29.2,29.5,29.2"></path>	<path d="M48.9,54.5c-0.2,0-0.4,0-0.5-0.1l-6.7-3.5l-6.7,3.5c-0.6,0.3-1.2,0.1-1.5-0.5c-0.1-0.2-0.2-0.5-0.1-0.7  l1.3-7.5L29,40.3c-0.4-0.4-0.5-1.2,0-1.6c0.2-0.2,0.4-0.3,0.6-0.3l7.5-1.1l3.4-6.8c0.3-0.6,1-0.8,1.5-0.5c0.2,0.1,0.4,0.3,0.5,0.5  l3.4,6.8l7.5,1.1c0.6,0.1,1,0.7,1,1.3c0,0.2-0.2,0.5-0.3,0.6l-5.5,5.3l1.3,7.5c0.1,0.6-0.3,1.2-0.9,1.3  C49,54.5,48.9,54.5,48.9,54.5 M32.3,40.3l4.2,4.1c0.3,0.3,0.4,0.6,0.3,1l-1,5.8l5.2-2.8c0.3-0.2,0.7-0.2,1.1,0l5.2,2.8l-1-5.8  c-0.1-0.4,0.1-0.7,0.3-1l4.2-4.1l-5.9-0.9c-0.4-0.1-0.7-0.3-0.9-0.6l-2.6-5.3L39,38.9c-0.2,0.3-0.5,0.6-0.9,0.6L32.3,40.3z"></path>	<path d="M18.2,54.5c-0.5,0-0.9-0.3-1-0.7l-4.5-11c-4.6-0.3-8.1-4.1-8.1-8.7v-21c0-4.8,3.9-8.7,8.7-8.7h32.7  c4.8,0,8.7,3.9,8.7,8.7v21.3c0,0.6-0.5,1.1-1.1,1.2c-0.6,0-1.1-0.5-1.2-1.1c0,0,0,0,0-0.1V13.2c0-3.5-2.9-6.4-6.4-6.4H13.2  c-3.5,0-6.4,2.9-6.4,6.4v21c0,3.5,2.9,6.4,6.4,6.4h0.2c0.5,0,0.9,0.3,1,0.7l3.7,9.1l3.7-9.1c0.2-0.4,0.6-0.7,1-0.7h1.9  c0.6,0,1.1,0.5,1.2,1.1c0,0.6-0.5,1.1-1.1,1.2c0,0,0,0-0.1,0h-1.2l-4.5,10.9C19,54.2,18.6,54.5,18.2,54.5"></path></g></svg>