<svg xmlns="http://www.w3.org/2000/svg" x="0px" y="0px" viewBox="0 0 65.1 60" style="enable-background:new 0 0 65.1 60;" xml:space="preserve"><g>	<path d="M19,55H6c-0.6,0-1-0.5-1-1l0,0V7.8c0-0.6,0.5-1,1-1l0,0h13c0.6,0,1,0.5,1,1V54C20.1,54.5,19.6,55,19,55   M7.1,53h11V8.8h-11V53z"></path>	<path d="M15.1,48.6H9.9c-0.6,0-1-0.5-1-1.1c0-0.5,0.5-1,1-1h5.3c0.6,0,1,0.5,1,1.1  C16.1,48.2,15.7,48.6,15.1,48.6"></path>	<path d="M31.9,55h-13c-0.6,0-1-0.5-1-1c0,0,0,0,0,0V7.8c0-0.6,0.5-1,1-1c0,0,0,0,0,0h13c0.6,0,1,0.5,1,1  c0,0,0,0,0,0V54C32.9,54.5,32.4,55,31.9,55C31.9,55,31.9,55,31.9,55 M19.9,53h11V8.8h-11V53z"></path>	<path d="M28,48.6h-5.3c-0.6,0-1-0.5-1-1.1c0-0.5,0.5-1,1-1H28c0.6,0,1,0.5,1,1.1C29,48.2,28.5,48.6,28,48.6"></path>	<path d="M46.8,55c-0.4,0-0.8-0.3-1-0.7L30.9,10.6C30.7,10,31,9.4,31.5,9.3l12.3-4.2c0.5-0.2,1.1,0.1,1.3,0.6  c0,0,0,0,0,0l14.9,43.8c0.2,0.5-0.1,1.1-0.6,1.3l-12.3,4.2C47,55,46.9,55,46.8,55 M33.2,10.9l14.3,41.8l10.4-3.5L43.5,7.3  L33.2,10.9z"></path>	<path d="M48.4,47.7c-0.6,0-1-0.5-1-1c0-0.4,0.3-0.8,0.7-1l5-1.7c0.5-0.2,1.1,0.1,1.3,0.7  c0.2,0.5-0.1,1.1-0.6,1.3l-5,1.7C48.6,47.7,48.5,47.7,48.4,47.7"></path></g></svg>