<svg xmlns="http://www.w3.org/2000/svg" xmlns:xlink="http://www.w3.org/1999/xlink" x="0px" y="0px"
	 viewBox="0 0 120 54" style="enable-background:new 0 0 120 54;" xml:space="preserve">
<style type="text/css">
	.st0{clip-path:url(#SVGID_2_);fill:url(#SVGID_3_);}
	.st1{fill:#FFFFFF;}
</style>
<g>
	<g>
		<path d="M58.5,40V13.4h4.6v22h11.1V40H58.5z"/>
		<path d="M80.7,18.5c-0.7,0-1.3-0.2-1.7-0.7c-0.5-0.4-0.7-1-0.7-1.7c0-0.7,0.2-1.2,0.7-1.7s1-0.7,1.7-0.7s1.2,0.2,1.7,0.7
			s0.7,1,0.7,1.7c0,0.7-0.2,1.3-0.7,1.7S81.4,18.5,80.7,18.5z M78.3,21h4.6v19h-4.6V21z"/>
		<path d="M98.7,40h-6l-6.9-19h4.9l5,13.7l5-13.7h4.9L98.7,40z"/>
		<path d="M110.9,18.5c-0.7,0-1.3-0.2-1.7-0.7c-0.5-0.4-0.7-1-0.7-1.7c0-0.7,0.2-1.2,0.7-1.7s1-0.7,1.7-0.7s1.2,0.2,1.7,0.7
			s0.7,1,0.7,1.7c0,0.7-0.2,1.3-0.7,1.7S111.5,18.5,110.9,18.5z M108.5,21h4.6v19h-4.6V21z"/>
	</g>
	<g>
		<g>
			<g>
				<defs>
					<path id="SVGID_1_" d="M24.3,4.7l-14.3,8.2c-2.1,1.2-3.4,3.5-3.4,5.9v16.5c0,2.4,1.3,4.7,3.4,5.8l14.3,8.2
						c2.1,1.2,4.7,1.2,6.7,0l14.3-8.2c2.1-1.2,3.4-3.5,3.4-5.8V18.8c0-2.4-1.3-4.7-3.4-5.8L31.1,4.7c-1-0.6-2.2-0.9-3.4-0.9
						C26.5,3.8,25.4,4.1,24.3,4.7"/>
				</defs>
				<clipPath id="SVGID_2_">
					<use xlink:href="#SVGID_1_"  style="overflow:visible;"/>
				</clipPath>
				
					<linearGradient id="SVGID_3_" gradientUnits="userSpaceOnUse" x1="-582.8999" y1="-220.84" x2="-581.9666" y2="-220.84" gradientTransform="matrix(45 0 0 45 26237.1953 9964.9531)">
					<stop  offset="0" style="stop-color:#EE2C3C"/>
					<stop  offset="0.3969" style="stop-color:#DA202F"/>
					<stop  offset="1" style="stop-color:#6A11B0"/>
				</linearGradient>
				<rect x="6.7" y="3.8" class="st0" width="42" height="46.8"/>
			</g>
		</g>
		<path class="st1" d="M28,33.5L22,30V15c0-0.4-0.5-0.7-0.7-0.5l-6.4,3.7c-0.4,0.2-0.7,0.7-0.7,1.1v14.5c0,0.5,0.3,0.8,0.7,1.1
			l12.5,7.3c0.4,0.2,0.8,0.2,1.2,0L41,35c0.4-0.2,0.4-0.7,0-0.9l-6.5-3.7c-0.3-0.2-0.7-0.2-1,0L28,33.5z"/>
	</g>
</g>
</svg>
